<?xml version="1.0" encoding="UTF-8"?>
<svg width="183px" height="37px" viewBox="0 0 183 37" version="1.1" xmlns="http://www.w3.org/2000/svg" xmlns:xlink="http://www.w3.org/1999/xlink">
    <!-- Generator: Sketch 55.2 (78181) - https://sketchapp.com -->
    <title>Artboard</title>
    <desc>Created with Sketch.</desc>
    <defs>
        <path d="M0.813,0.476 L0.813,0.872 C0.813,3.249 0.815,5.626 0.812,8.003 L0.812,8.003 C0.812,8.255 0.803,8.506 0.797,8.757 L0.797,8.757 L2.686,8.757 C2.677,8.622 2.662,8.486 2.661,8.352 L2.661,8.352 C2.66,5.859 2.66,3.366 2.66,0.874 L2.66,0.874 L2.66,0.476 L0.813,0.476 Z" id="path-1"></path>
        <path d="M0.651,0.473 L0.651,0.869 C0.651,2.577 0.65,4.284 0.652,5.992 L0.652,5.992 C0.653,6.913 0.66,7.835 0.665,8.757 L0.665,8.757 L2.49,8.757 C2.486,8.621 2.477,8.485 2.476,8.35 L2.476,8.35 C2.475,5.856 2.476,3.363 2.476,0.87 L2.476,0.87 L2.476,0.473 L0.651,0.473 Z" id="path-3"></path>
        <path d="M0.256,0.933 C0.238,1.309 0.248,1.687 0.248,2.064 L0.248,2.064 C0.248,2.451 0.236,2.839 0.257,3.226 L0.257,3.226 C0.262,3.311 0.377,3.46 0.448,3.465 L0.448,3.465 C1.023,3.494 1.6,3.507 2.143,3.26 L2.143,3.26 C2.649,3.028 2.906,2.613 2.887,2.061 L2.887,2.061 C2.868,1.482 2.601,1.031 2.059,0.898 L2.059,0.898 C1.528,0.769 0.968,0.755 0.419,0.711 L0.419,0.711 C0.418,0.711 0.418,0.711 0.417,0.711 L0.417,0.711 C0.365,0.711 0.259,0.854 0.256,0.933 L0.256,0.933 Z" id="path-5"></path>
        <path d="M0.504,0.318 C0.417,0.32 0.262,0.433 0.26,0.499 L0.26,0.499 C0.244,1.249 0.249,2.003 0.249,2.771 L0.249,2.771 C0.978,2.89 1.764,2.781 2.188,2.516 L2.188,2.516 C2.612,2.25 2.844,1.667 2.722,1.172 L2.722,1.172 C2.608,0.705 2.225,0.384 1.696,0.346 L1.696,0.346 C1.406,0.324 1.114,0.314 0.823,0.314 L0.823,0.314 C0.716,0.314 0.61,0.315 0.504,0.318 L0.504,0.318 Z" id="path-7"></path>
        <path d="M0.295,1.667 C1.057,1.667 1.8,1.67 2.542,1.659 L2.542,1.659 C2.596,1.658 2.693,1.551 2.695,1.489 L2.695,1.489 C2.722,0.891 2.258,0.396 1.657,0.362 L1.657,0.362 C1.629,0.36 1.601,0.36 1.573,0.36 L1.573,0.36 C0.871,0.36 0.37,0.85 0.295,1.667 L0.295,1.667 Z" id="path-9"></path>
        <polygon id="path-11" points="0.059 0.5 1.059 0.5 1.059 23 0.059 23"></polygon>
        <polygon id="path-13" points="0.4821 0.1657 47.712 0.1657 47.712 19.7567 0.4821 19.7567"></polygon>
        <polygon id="path-15" points="0 0.8362 2.6768 0.8362 2.6768 4.7552 0 4.7552"></polygon>
        <polygon id="path-17" points="0 33 170.712 33 170.712 0.5 0 0.5"></polygon>
    </defs>
    <g id="Artboard" stroke="none" stroke-width="1" fill="none" fill-rule="evenodd">
        <g id="Group-103" transform="translate(6.000000, 1.000000)">
            <g id="Group-5" transform="translate(111.000000, 18.500000)" fill="#E30021">
                <path d="M4.6995,8.7567 C4.7105,8.6217 4.7285,8.4867 4.7285,8.3527 C4.7295,5.8677 4.7295,3.3837 4.7295,0.8997 L4.7295,0.4737 L6.5405,0.4737 C6.5465,0.6027 6.5575,0.7357 6.5575,0.8667 C6.5585,3.3617 6.5575,5.8577 6.5595,8.3527 C6.5595,8.4867 6.5785,8.6217 6.5885,8.7567 L4.6995,8.7567 Z" id="Fill-1"></path>
                <path d="M0.7971,8.7567 C0.8031,8.5057 0.8131,8.2547 0.8131,8.0037 C0.8151,5.6267 0.8141,3.2487 0.8141,0.8717 L0.8141,0.4757 L2.6601,0.4757 L2.6601,0.8737 C2.6601,3.3657 2.6601,5.8587 2.6611,8.3517 C2.6621,8.4857 2.6771,8.6217 2.6861,8.7567 L0.7971,8.7567 Z" id="Fill-3"></path>
            </g>
            <g id="Group-8" transform="translate(111.000000, 18.500000)">
                <mask id="mask-2" fill="white">
                    <use xlink:href="#path-1"></use>
                </mask>
                <g id="Clip-7"></g>
                <polygon id="Fill-6" fill="#E30021" mask="url(#mask-2)" points="-4.203 13.756 7.686 13.756 7.686 -4.525 -4.203 -4.525"></polygon>
            </g>
            <path d="M119.6653,27.2567 C119.6603,26.3347 119.6533,25.4127 119.6523,24.4917 C119.6493,22.7837 119.6513,21.0767 119.6513,19.3687 L119.6513,18.9737 L121.4763,18.9737 L121.4763,19.3697 C121.4763,21.8627 121.4753,24.3567 121.4763,26.8497 C121.4773,26.9857 121.4853,27.1207 121.4903,27.2567 L119.6653,27.2567 Z" id="Fill-9" fill="#E30021"></path>
            <g id="Group-13" transform="translate(119.000000, 18.500000)">
                <mask id="mask-4" fill="white">
                    <use xlink:href="#path-3"></use>
                </mask>
                <g id="Clip-12"></g>
                <polygon id="Fill-11" fill="#E30021" mask="url(#mask-4)" points="-4.349 13.756 7.491 13.756 7.491 -4.527 -4.349 -4.527"></polygon>
            </g>
            <g id="Group-24" transform="translate(89.000000, 7.500000)" fill="#E30021">
                <path d="M5.1165,6.8329 C5.6275,6.4969 6.0535,6.1499 6.5355,5.9159 C7.0285,5.6749 7.5615,5.4669 8.0985,5.3789 C9.1905,5.2009 10.0575,5.8129 10.4445,6.9349 C10.8315,8.0569 10.8195,9.2069 10.6235,10.3529 C10.3925,11.6929 9.8815,12.9289 9.0455,14.0119 C7.7515,15.6889 6.0595,16.4369 3.9315,16.2289 C2.8075,16.1189 1.6755,16.0989 0.5465,16.0369 C0.4845,16.0339 0.4245,16.0219 0.3325,16.0109 C1.1635,11.6169 1.9925,7.2369 2.8325,2.8039 C2.3035,2.8039 1.8235,2.7949 1.3455,2.8089 C1.1245,2.8139 1.0235,2.7659 1.0295,2.5169 C1.0455,1.8349 1.0375,1.1529 1.0335,0.4719 C1.0335,0.3099 1.0415,0.1889 1.2615,0.189893847 C2.7605,0.1969 4.2605,0.1949 5.7595,0.1979 C5.7995,0.1979 5.8385,0.2149 5.8545,0.2189 C6.1765,2.4809 5.5255,4.6259 5.1165,6.8329 M3.7845,13.7669 C4.0765,13.7989 4.3145,13.8199 4.5525,13.8519 C5.2455,13.9419 5.8245,13.6999 6.2585,13.1809 C6.5755,12.7989 6.8605,12.3749 7.0815,11.9299 C7.4785,11.1269 7.7285,10.2719 7.6995,9.3609 C7.6715,8.5009 7.1065,8.0619 6.3135,8.3639 C5.7975,8.5619 5.3335,8.9039 4.8625,9.2079 C4.7595,9.2739 4.6965,9.4439 4.6665,9.5789 C4.4705,10.4459 4.2895,11.3159 4.1055,12.1869 C3.9985,12.6969 3.8975,13.2079 3.7845,13.7669" id="Fill-14"></path>
                <path d="M19.0891,13.5506 C19.0891,14.2126 19.0921,14.8596 19.0831,15.5056 C19.0831,15.5596 19.0191,15.6466 18.9681,15.6596 C17.6111,16.0346 16.2411,16.4156 14.8231,16.1836 C13.1831,15.9146 12.1981,14.8766 11.7791,13.2936 C11.1821,11.0356 12.0641,7.5586 14.6131,6.1106 C16.1291,5.2506 17.7361,5.0316 19.3751,5.7646 C20.1651,6.1166 20.6171,6.7796 20.7851,7.6196 C21.1931,9.6596 20.1031,11.2686 18.0441,11.7086 C17.0591,11.9186 16.0641,11.8786 15.0681,11.8826 C14.6221,11.8846 14.6051,11.9046 14.6731,12.3436 C14.8301,13.3446 15.4471,13.9056 16.4641,13.8566 C17.2661,13.8166 18.0631,13.6706 18.8621,13.5726 C18.9231,13.5656 18.9841,13.5606 19.0891,13.5506 M14.9671,10.2066 C15.4511,10.1816 15.8861,10.2046 16.3001,10.1256 C16.9731,9.9966 17.4591,9.5986 17.6651,8.9246 C17.7631,8.6036 17.7641,8.2676 17.4931,8.0176 C17.2381,7.7826 16.9241,7.7796 16.6081,7.8876 C16.5101,7.9206 16.4091,7.9596 16.3221,8.0156 C15.5581,8.5146 15.1611,9.2446 14.9671,10.2066" id="Fill-16"></path>
                <path d="M34.4875,9.704 C34.3645,9.693 34.2405,9.672 34.1175,9.672 C30.4905,9.671 26.8625,9.671 23.2345,9.671 L22.8185,9.671 C22.8185,9.062 22.8145,8.479 22.8255,7.896 C22.8265,7.848 22.9245,7.782 22.9885,7.758 C23.0525,7.733 23.1335,7.751 23.2065,7.751 C26.8545,7.751 30.5035,7.75 34.1515,7.75 L34.4815,7.75 L34.4815,9.711 L34.4875,9.704" id="Fill-18"></path>
                <path d="M33.5325,6.62290127 C32.7705,6.62290127 32.1765,6.0269 32.1804799,5.2689 C32.1845,4.5169 32.7985,3.9159 33.5525,3.9239 C34.2915,3.9329 34.8815,4.5279 34.8845051,5.2719 C34.8865,6.0339 34.2975,6.6239 33.5325,6.62290127" id="Fill-20"></path>
                <path d="M49.2483,10.0633 C49.2483,9.6863 49.2383,9.3093 49.2563,8.9333 C49.2593,8.8533 49.3683,8.7073 49.4193,8.7103 C49.9683,8.7543 50.5273,8.7683 51.0593,8.8983 C51.6013,9.0303 51.8683,9.4823 51.8873,10.0613 C51.9053,10.6133 51.6493,11.0273 51.1433,11.2593 C50.6003,11.5073 50.0223,11.4943 49.4473,11.4643 C49.3773,11.4603 49.2623,11.3113 49.2573,11.2253 C49.2363,10.8383 49.2483,10.4513 49.2483,10.0633" id="Fill-22"></path>
            </g>
            <g id="Group-27" transform="translate(138.000000, 15.500000)">
                <mask id="mask-6" fill="white">
                    <use xlink:href="#path-5"></use>
                </mask>
                <g id="Clip-26"></g>
                <polygon id="Fill-25" fill="#E30021" mask="url(#mask-6)" points="-4.756 8.481 7.888 8.481 7.888 -4.289 -4.756 -4.289"></polygon>
            </g>
            <path d="M138.2493,15.2713 C138.2493,14.5023 138.2433,13.7503 138.2603,12.9993 C138.2623,12.9333 138.4173,12.8203 138.5043,12.8183 C138.9003,12.8083 139.3003,12.8163 139.6963,12.8453 C140.2253,12.8833 140.6073,13.2053 140.7223,13.6713 C140.8443,14.1673 140.6123,14.7503 140.1873,15.0153 C139.7643,15.2813 138.9783,15.3903 138.2493,15.2713" id="Fill-28" fill="#E30021"></path>
            <g id="Group-32" transform="translate(138.000000, 12.500000)">
                <mask id="mask-8" fill="white">
                    <use xlink:href="#path-7"></use>
                </mask>
                <g id="Clip-31"></g>
                <polygon id="Fill-30" fill="#E30021" mask="url(#mask-8)" points="-4.752 7.819 7.754 7.819 7.754 -4.686 -4.752 -4.686"></polygon>
            </g>
            <path d="M144.2952,16.1669 C144.3722,15.3179 144.9102,14.8209 145.6562,14.8619 C146.2582,14.8959 146.7222,15.3919 146.6952,15.9889 C146.6922,16.0509 146.5972,16.1579 146.5422,16.1589 C145.8002,16.1699 145.0582,16.1669 144.2952,16.1669" id="Fill-33" fill="#E30021"></path>
            <g id="Group-37" transform="translate(144.000000, 14.500000)">
                <mask id="mask-10" fill="white">
                    <use xlink:href="#path-9"></use>
                </mask>
                <g id="Clip-36"></g>
                <polygon id="Fill-35" fill="#E30021" mask="url(#mask-10)" points="-4.705 6.667 7.696 6.667 7.696 -4.64 -4.705 -4.64"></polygon>
            </g>
            <polygon id="Fill-38" fill="#E30021" points="79.059 28.5 80.059 28.5 80.059 6 79.059 6"></polygon>
            <g id="Group-42" transform="translate(79.000000, 5.500000)">
                <mask id="mask-12" fill="white">
                    <use xlink:href="#path-11"></use>
                </mask>
                <g id="Clip-41"></g>
                <polygon id="Fill-40" fill="#E30021" mask="url(#mask-12)" points="-4.941 28 6.059 28 6.059 -4.5 -4.941 -4.5"></polygon>
            </g>
            <g id="Group-102" transform="translate(0.000000, 0.500000)">
                <g id="Group-45" transform="translate(123.000000, 7.000000)">
                    <mask id="mask-14" fill="white">
                        <use xlink:href="#path-13"></use>
                    </mask>
                    <g id="Clip-44"></g>
                    <path d="M0.5051,19.7567 C0.5131,19.6527 0.5291,19.5487 0.5291,19.4447 C0.5301,16.3107 0.5301,13.1747 0.5281,10.0397 C0.5281,9.9277 0.5021,9.8157 0.4871,9.7037 L0.4821,9.7107 C0.6271,9.7027 0.7741,9.6867 0.9191,9.6867 C3.8671,9.6857 6.8151,9.6857 9.7631,9.6857 L10.2141,9.6857 C10.2141,9.0557 10.2191,8.4517 10.2031,7.8497 C10.2021,7.8077 10.0481,7.7357 9.9641,7.7347 C9.4191,7.7237 8.8731,7.7287 8.3271,7.7287 L4.8651,7.7287 L4.4971,7.7287 L4.4971,0.1897 C4.5981,0.1827 4.7071,0.1667 4.8171,0.1667 C19.0321,0.1657 33.2461,0.1657 47.4611,0.1657 C47.5451,0.1657 47.6281,0.1767 47.7121,0.1817 L47.7121,16.1067 C47.6181,16.0977 47.5251,16.0807 47.4321,16.0807 C35.1411,16.0787 22.8491,16.0807 10.5581,16.0727 C10.2521,16.0727 10.1951,16.1797 10.1981,16.4527 C10.2101,17.5547 10.2001,18.6547 10.1971,19.7567 L8.3721,19.7567 C8.3731,17.1047 8.3711,14.4527 8.3791,11.8007 C8.3801,11.5607 8.3201,11.4647 8.0661,11.4767 C7.6261,11.4947 7.1851,11.4817 6.7451,11.4817 C6.3041,11.4817 6.3041,11.4817 6.3031,11.9277 C6.3011,14.5367 6.2981,17.1477 6.2951,19.7567 L4.4701,19.7567 L4.4701,11.9337 C4.4701,11.8397 4.4851,11.7397 4.4611,11.6527 C4.4431,11.5887 4.3691,11.4937 4.3191,11.4927 C3.6861,11.4827 3.0511,11.4857 2.4071,11.4857 C2.3971,11.5817 2.3861,11.6317 2.3861,11.6827 C2.3881,14.3737 2.3901,17.0657 2.3931,19.7567 L0.5051,19.7567 Z M14.0311,5.2327 L14.0311,5.6287 L14.0311,10.8167 C14.0311,11.5577 14.0341,11.5737 13.3121,11.7017 C12.9571,11.7647 13.0811,12.0087 13.0611,12.2047 C13.0331,12.4527 13.2101,12.4317 13.3701,12.4317 C14.3131,12.4317 15.2561,12.4397 16.1991,12.4287 C16.8241,12.4227 17.4291,12.3047 17.9871,12.0107 C18.8201,11.5707 19.1691,10.8517 19.1361,9.9387 C19.1051,9.0917 18.6531,8.5357 17.8741,8.2327 C17.8231,8.2117 17.7761,8.1807 17.7071,8.1437 C17.8341,8.0717 17.9361,8.0197 18.0331,7.9587 C18.7611,7.5047 19.0551,6.8427 18.9381,6.0037 C18.8271,5.2117 18.3611,4.7107 17.5901,4.5287 C17.1871,4.4347 16.7641,4.3807 16.3501,4.3727 C15.3221,4.3567 14.2961,4.3767 13.2691,4.3837 C13.2101,4.3847 13.1501,4.4027 13.0811,4.4137 C13.0721,4.5097 13.0711,4.5927 13.0571,4.6737 C13.0001,4.9927 13.1451,5.1327 13.4561,5.1517 C13.6411,5.1617 13.8231,5.2017 14.0311,5.2327 L14.0311,5.2327 Z M38.0701,12.4317 C38.3891,12.4317 38.6691,12.4197 38.9491,12.4357 C39.1901,12.4487 39.2521,12.3497 39.2491,12.1217 C39.2351,11.2737 39.2311,10.4237 39.2381,9.5747 C39.2441,8.8247 39.4041,8.1257 40.0811,7.6797 C40.4441,7.4407 40.8591,7.3317 41.2731,7.5517 C41.6491,7.7517 41.6801,8.1307 41.6801,8.5087 L41.6801,11.5597 C41.6811,12.5017 41.6801,12.4967 42.6391,12.4357 C42.8171,12.4237 42.8721,12.3607 42.8721,12.1887 C42.8671,10.8467 42.8881,9.5037 42.8621,8.1627 C42.8431,7.1467 42.2201,6.5847 41.2081,6.6047 C40.4551,6.6187 39.7851,6.8277 39.2751,7.4567 C39.2431,7.2597 39.2631,7.0717 39.2351,6.8927 C39.2221,6.8097 39.1131,6.6747 39.0511,6.6757 C38.4171,6.6897 37.7831,6.7267 37.1501,6.7577 L37.1501,7.4107 C37.3551,7.4407 37.5401,7.4837 37.7261,7.4887 C37.9841,7.4977 38.0801,7.5867 38.0771,7.8667 C38.0611,9.2507 38.0691,10.6347 38.0701,12.0187 L38.0701,12.4317 Z M24.5911,11.3197 C24.0701,11.4087 23.5711,11.5277 23.0651,11.5737 C21.9421,11.6777 21.2801,11.0787 21.1921,9.9507 C21.1681,9.6527 21.2401,9.5487 21.5581,9.5547 C22.5531,9.5737 23.5501,9.5537 24.5451,9.5677 C24.8121,9.5697 24.8911,9.4787 24.8851,9.2237 C24.8721,8.6407 24.8241,8.0597 24.5091,7.5587 C24.3361,7.2837 24.1031,7.0077 23.8291,6.8417 C22.5521,6.0697 20.7651,6.7367 20.2671,8.1417 C19.9981,8.9007 19.9511,9.6787 20.0961,10.4667 C20.3001,11.5677 20.9211,12.2387 21.9031,12.4407 C22.5611,12.5747 23.2161,12.5637 23.8661,12.3967 C24.6761,12.1887 24.6891,12.1687 24.5911,11.3197 L24.5911,11.3197 Z M29.5001,4.0527 C29.3881,4.6527 29.3931,4.6597 29.9081,4.7447 C29.9501,4.7517 29.9921,4.7697 30.0321,4.7677 C30.3491,4.7457 30.3981,4.9137 30.3961,5.1937 C30.3851,7.0807 30.3901,8.9677 30.3911,10.8547 C30.3911,11.5777 30.3931,11.5907 29.6901,11.7087 C29.3231,11.7697 29.4841,12.0307 29.4561,12.2187 C29.4231,12.4467 29.5951,12.4317 29.7441,12.4317 C30.5831,12.4317 31.4211,12.4327 32.2601,12.4307 C32.3491,12.4307 32.4381,12.4097 32.5261,12.3997 L32.5261,11.7627 C32.3171,11.7247 32.1231,11.6647 31.9281,11.6607 C31.6301,11.6557 31.5791,11.5087 31.5811,11.2447 C31.5911,9.7147 31.5861,8.1847 31.5861,6.6527 C31.5861,5.8667 31.5861,5.0807 31.5851,4.2947 C31.5841,4.1617 31.6121,4.0077 31.3961,4.0127 C30.7601,4.0277 30.1241,4.0397 29.5001,4.0527 L29.5001,4.0527 Z M27.5151,7.4437 C27.5151,7.2787 27.5021,7.1127 27.5171,6.9497 C27.5381,6.7237 27.4391,6.6557 27.2261,6.6677 C26.7241,6.6937 26.2211,6.7167 25.7191,6.7197 C25.4761,6.7207 25.4261,6.8257 25.4221,7.0457 C25.4181,7.2957 25.4621,7.4527 25.7561,7.4387 C25.8591,7.4337 25.9621,7.4837 26.0661,7.4827 C26.3241,7.4807 26.3951,7.6007 26.3931,7.8517 C26.3811,9.0977 26.3881,10.3447 26.3881,11.5917 C26.3881,12.4527 26.3881,12.4457 27.2521,12.4377 C27.4821,12.4347 27.5651,12.3697 27.5611,12.1327 C27.5491,11.3257 27.5301,10.5177 27.5671,9.7127 C27.5861,9.2797 27.6731,8.8407 27.8011,8.4267 C27.9431,7.9647 28.2991,7.7157 28.8011,7.7127 L29.3251,7.7127 C29.3251,7.3827 29.3391,7.0797 29.3151,6.7797 C29.3101,6.7157 29.1711,6.6137 29.0911,6.6107 C28.4201,6.5847 27.8781,6.8117 27.5151,7.4437 L27.5151,7.4437 Z M36.4431,11.7577 C36.1831,11.7147 35.9461,11.6557 35.7081,11.6417 C35.4951,11.6277 35.4471,11.5307 35.4521,11.3407 C35.4621,10.9637 35.4541,10.5857 35.4541,10.2087 C35.4541,9.1287 35.4551,8.0487 35.4541,6.9687 C35.4541,6.8237 35.4831,6.6527 35.2521,6.6617 C34.6761,6.6867 34.1001,6.7147 33.5251,6.7417 C33.2801,6.7537 33.3221,6.9387 33.3251,7.0887 C33.3281,7.2357 33.2741,7.4117 33.5261,7.4337 C33.7821,7.4547 34.0351,7.5117 34.3051,7.5557 L34.3051,10.8237 C34.3051,11.5777 34.3081,11.5927 33.5701,11.7097 C33.2071,11.7677 33.3511,12.0217 33.3271,12.2127 C33.2981,12.4377 33.4571,12.4327091 33.6111,12.4327091 C34.4821,12.4317 35.3521,12.4327091 36.2231,12.4297 C36.2921,12.4297 36.3621,12.4097 36.4431,12.3987 L36.4431,11.7577 Z M34.8531,4.3057 C34.4091,4.3007 34.0671,4.6237 34.0541,5.0587 C34.0411,5.4987 34.3931,5.8557 34.8401,5.8557 C35.2731,5.8557 35.6201,5.5167 35.6261,5.0867 C35.6321,4.6617 35.2851,4.3107 34.8531,4.3057 L34.8531,4.3057 Z" id="Fill-43" fill="#E30021" mask="url(#mask-14)"></path>
                </g>
                <g id="Group-48" transform="translate(0.000000, 5.000000)">
                    <mask id="mask-16" fill="white">
                        <use xlink:href="#path-15"></use>
                    </mask>
                    <g id="Clip-47"></g>
                    <path d="M0.5598,1.3172 L0.5598,4.2742 L0.9858,4.2742 C1.1458,4.2742 1.2938,4.2432 1.4308,4.1812 C1.5668,4.1202 1.6848,4.0282 1.7838,3.9042 C1.8818,3.7812 1.9598,3.6282 2.0158,3.4422 C2.0718,3.2572 2.0998,3.0422 2.0998,2.7962 C2.0998,2.5012 2.0718,2.2572 2.0158,2.0672 C1.9598,1.8782 1.8818,1.7262 1.7838,1.6142 C1.6848,1.5022 1.5668,1.4242 1.4308,1.3812 C1.2938,1.3382 1.1438,1.3172 0.9798,1.3172 L0.5598,1.3172 Z M1.0528,0.8362 C1.2688,0.8362 1.4758,0.8622 1.6708,0.9142 C1.8678,0.9662 2.0398,1.0612 2.1898,1.2002 C2.3388,1.3382 2.4568,1.5292 2.5448,1.7732 C2.6328,2.0182 2.6768,2.3332 2.6768,2.7172 C2.6768,3.0802 2.6328,3.3892 2.5448,3.6472 C2.4568,3.9042 2.3388,4.1152 2.1898,4.2802 C2.0398,4.4442 1.8678,4.5642 1.6708,4.6402 C1.4758,4.7172 1.2688,4.7552 1.0528,4.7552 L-0.0002,4.7552 L-0.0002,0.8362 L1.0528,0.8362 Z" id="Fill-46" fill="#E30021" mask="url(#mask-16)"></path>
                </g>
                <path d="M4.2502,8.1874 C4.4482,8.1874 4.5962,8.1484 4.6922,8.0704 C4.7892,7.9924 4.8382,7.8854 4.8382,7.7504 C4.8382,7.6314 4.8012,7.5344 4.7262,7.4594 C4.6512,7.3844 4.5542,7.3474 4.4352,7.3474 C4.3342,7.3474 4.2452,7.3704 4.1692,7.4154 C4.0922,7.4594 4.0262,7.5204 3.9702,7.5964 C3.9142,7.6734 3.8702,7.7624 3.8382,7.8634 C3.8072,7.9634 3.7892,8.0724 3.7852,8.1874 L4.2502,8.1874 Z M5.3192,9.6214 C5.2372,9.6594 5.1462,9.6904 5.0452,9.7164 C4.9592,9.7394 4.8572,9.7594 4.7402,9.7784 C4.6222,9.7964 4.4942,9.8064 4.3562,9.8064 C3.9902,9.8064 3.7142,9.6834 3.5272,9.4394 C3.3412,9.1954 3.2482,8.8504 3.2482,8.4064 C3.2482,8.1444 3.2792,7.9184 3.3432,7.7284 C3.4062,7.5384 3.4922,7.3814 3.6012,7.2574 C3.7092,7.1344 3.8352,7.0434 3.9792,6.9834 C4.1222,6.9234 4.2742,6.8944 4.4352,6.8944 C4.7192,6.8944 4.9452,6.9584 5.1152,7.0874 C5.2852,7.2154 5.3702,7.4204 5.3702,7.7004 C5.3702,7.8984 5.3352,8.0574 5.2672,8.1764 C5.1972,8.2954 5.1092,8.3884 5.0032,8.4544 C4.8962,8.5194 4.7762,8.5624 4.6422,8.5834 C4.5082,8.6034 4.3772,8.6134 4.2502,8.6134 L3.7912,8.6134 C3.8022,8.7174 3.8202,8.8154 3.8472,8.9044 C3.8732,8.9944 3.9112,9.0714 3.9622,9.1334 C4.0122,9.1984 4.0762,9.2484 4.1542,9.2854 C4.2332,9.3234 4.3282,9.3414 4.4402,9.3414 C4.5412,9.3414 4.6432,9.3314 4.7452,9.3104 C4.8492,9.2904 4.9422,9.2664 5.0282,9.2404 C5.1252,9.2104 5.2232,9.1764 5.3192,9.1394 L5.3192,9.6214 Z" id="Fill-49" fill="#E30021"></path>
                <path d="M7.5598,7.4042 C7.4518,7.3882 7.3428,7.3912 7.2348,7.4122 C7.1258,7.4322 7.0278,7.4582 6.9378,7.4882 C6.8328,7.5252 6.7328,7.5682 6.6358,7.6162 L6.6358,9.7562 L6.0978,9.7562 L6.0978,6.9562 L6.5348,6.9562 L6.5798,7.2082 C6.6768,7.1442 6.7798,7.0892 6.8878,7.0402 C6.9808,6.9992 7.0848,6.9642 7.2018,6.9332 C7.3168,6.9032 7.4368,6.8942 7.5598,6.9052 L7.5598,7.4042 Z" id="Fill-51" fill="#E30021"></path>
                <path d="M10.1301,6.2889 L10.1301,7.6219 L10.4831,7.6219 C10.5871,7.6219 10.6891,7.6069 10.7881,7.5769 C10.8871,7.5479 10.9741,7.5049 11.0481,7.4479 C11.1231,7.3929 11.1841,7.3219 11.2311,7.2359 C11.2771,7.1499 11.3001,7.0509 11.3001,6.9389 C11.3001,6.8119 11.2791,6.7069 11.2381,6.6229 C11.1971,6.5389 11.1411,6.4729 11.0671,6.4239 C10.9951,6.3749 10.9091,6.3409 10.8111,6.3199 C10.7111,6.2999 10.6061,6.2889 10.4941,6.2889 L10.1301,6.2889 Z M10.1301,9.7559 L9.5701,9.7559 L9.5701,5.8359 L10.5441,5.8359 C10.7201,5.8359 10.8871,5.8509 11.0461,5.8809 C11.2041,5.9099 11.3441,5.9639 11.4661,6.0399 C11.5871,6.1169 11.6841,6.2229 11.7571,6.3559 C11.8291,6.4909 11.8661,6.6629 11.8661,6.8719 C11.8661,7.1179 11.8041,7.3349 11.6791,7.5209 C11.5531,7.7079 11.3551,7.8389 11.0821,7.9129 L11.0821,7.9189 C11.1501,7.9489 11.2131,7.9829 11.2731,8.0219 C11.3321,8.0609 11.3871,8.1109 11.4381,8.1709 C11.4881,8.2299 11.5331,8.3039 11.5741,8.3899 C11.6151,8.4759 11.6551,8.5799 11.6921,8.7029 L12.0061,9.7559 L11.4061,9.7559 L11.1151,8.7089 C11.0521,8.4769 10.9711,8.3119 10.8721,8.2159 C10.7731,8.1189 10.6401,8.0699 10.4721,8.0699 L10.1301,8.0699 L10.1301,9.7559 Z" id="Fill-53" fill="#E30021"></path>
                <path d="M13.5461,8.1874 C13.7441,8.1874 13.8921,8.1484 13.9881,8.0704 C14.0851,7.9924 14.1341,7.8854 14.1341,7.7504 C14.1341,7.6314 14.0971,7.5344 14.0221,7.4594 C13.9471,7.3844 13.8501,7.3474 13.7311,7.3474 C13.6301,7.3474 13.5411,7.3704 13.4651,7.4154 C13.3881,7.4594 13.3221,7.5204 13.2661,7.5964 C13.2101,7.6734 13.1661,7.7624 13.1341,7.8634 C13.1031,7.9634 13.0851,8.0724 13.0811,8.1874 L13.5461,8.1874 Z M14.6151,9.6214 C14.5331,9.6594 14.4421,9.6904 14.3411,9.7164 C14.2551,9.7394 14.1531,9.7594 14.0361,9.7784 C13.9181,9.7964 13.7901,9.8064 13.6521,9.8064 C13.2861,9.8064 13.0101,9.6834 12.8231,9.4394 C12.6371,9.1954 12.5441,8.8504 12.5441,8.4064 C12.5441,8.1444 12.5751,7.9184 12.6391,7.7284 C12.7021,7.5384 12.7881,7.3814 12.8971,7.2574 C13.0051,7.1344 13.1311,7.0434 13.2751,6.9834 C13.4181,6.9234 13.5701,6.8944 13.7311,6.8944 C14.0151,6.8944 14.2411,6.9584 14.4111,7.0874 C14.5811,7.2154 14.6661,7.4204 14.6661,7.7004 C14.6661,7.8984 14.6311,8.0574 14.5631,8.1764 C14.4931,8.2954 14.4051,8.3884 14.2991,8.4544 C14.1921,8.5194 14.0721,8.5624 13.9381,8.5834 C13.8041,8.6034 13.6731,8.6134 13.5461,8.6134 L13.0871,8.6134 C13.0981,8.7174 13.1161,8.8154 13.1431,8.9044 C13.1691,8.9944 13.2071,9.0714 13.2581,9.1334 C13.3081,9.1984 13.3721,9.2484 13.4501,9.2854 C13.5291,9.3234 13.6241,9.3414 13.7361,9.3414 C13.8371,9.3414 13.9391,9.3314 14.0411,9.3104 C14.1451,9.2904 14.2381,9.2664 14.3241,9.2404 C14.4211,9.2104 14.5191,9.1764 14.6151,9.1394 L14.6151,9.6214 Z" id="Fill-55" fill="#E30021"></path>
                <path d="M15.8196,7.9696 C15.8196,8.1896 15.8756,8.3526 15.9876,8.4566 C16.0996,8.5616 16.2396,8.6136 16.4076,8.6136 C16.5716,8.6136 16.7116,8.5616 16.8246,8.4566 C16.9386,8.3526 16.9956,8.1896 16.9956,7.9696 L16.9956,7.6156 C16.9506,7.5606 16.8966,7.5116 16.8336,7.4706 C16.7806,7.4336 16.7156,7.4006 16.6366,7.3696 C16.5586,7.3406 16.4656,7.3246 16.3566,7.3246 C16.2936,7.3246 16.2286,7.3376 16.1646,7.3626 C16.0986,7.3856 16.0406,7.4256 15.9906,7.4796 C15.9396,7.5326 15.8986,7.6006 15.8676,7.6806 C15.8356,7.7616 15.8196,7.8576 15.8196,7.9696 L15.8196,7.9696 Z M16.0486,9.8506 C16.0186,9.8506 15.9916,9.8496 15.9656,9.8486 C15.9386,9.8466 15.9166,9.8436 15.8976,9.8396 C15.8756,9.8356 15.8546,9.8316 15.8366,9.8286 C15.7986,9.8586 15.7666,9.8926 15.7416,9.9296 C15.7156,9.9586 15.6926,9.9966 15.6736,10.0406 C15.6556,10.0856 15.6456,10.1346 15.6456,10.1876 C15.6456,10.3216 15.7146,10.4176 15.8496,10.4756 C15.9866,10.5326 16.1726,10.5626 16.4076,10.5626 C16.6386,10.5626 16.8296,10.5276 16.9786,10.4586 C17.1286,10.3896 17.2026,10.2896 17.2026,10.1586 C17.2026,10.0916 17.1896,10.0386 17.1636,9.9986 C17.1366,9.9596 17.1006,9.9296 17.0536,9.9066 C17.0066,9.8846 16.9546,9.8696 16.8946,9.8626 C16.8356,9.8546 16.7716,9.8506 16.7046,9.8506 L16.0486,9.8506 Z M17.5106,7.9246 C17.5106,8.1186 17.4796,8.2846 17.4186,8.4226 C17.3566,8.5616 17.2746,8.6726 17.1726,8.7586 C17.0696,8.8446 16.9516,8.9076 16.8186,8.9486 C16.6866,8.9906 16.5476,9.0106 16.4016,9.0106 L16.1946,9.0106 C16.0906,9.0106 16.0016,9.0286 15.9286,9.0616 C15.8556,9.0946 15.8196,9.1456 15.8196,9.2126 C15.8196,9.2806 15.8476,9.3306 15.9036,9.3656 C15.9596,9.4026 16.0526,9.4196 16.1836,9.4196 L16.8336,9.4196 C17.1316,9.4196 17.3516,9.4786 17.4936,9.5966 C17.6356,9.7136 17.7066,9.8886 17.7066,10.1196 C17.7066,10.3556 17.5906,10.5486 17.3596,10.7016 C17.1286,10.8556 16.7946,10.9316 16.3566,10.9316 C15.9276,10.9316 15.6176,10.8726 15.4266,10.7556 C15.2376,10.6376 15.1416,10.4666 15.1416,10.2426 C15.1416,10.1456 15.1616,10.0616 15.2006,9.9886 C15.2396,9.9146 15.2836,9.8546 15.3326,9.8066 C15.3876,9.7496 15.4516,9.7036 15.5226,9.6656 C15.4856,9.6436 15.4536,9.6146 15.4266,9.5756 C15.4056,9.5466 15.3836,9.5086 15.3656,9.4616 C15.3466,9.4146 15.3386,9.3606 15.3386,9.2966 C15.3386,9.1926 15.3576,9.1076 15.3966,9.0416 C15.4356,8.9766 15.4796,8.9246 15.5286,8.8876 C15.5846,8.8466 15.6496,8.8176 15.7236,8.7976 C15.6416,8.7536 15.5696,8.6956 15.5066,8.6246 C15.4536,8.5616 15.4056,8.4806 15.3606,8.3806 C15.3156,8.2816 15.2936,8.1546 15.2936,7.9966 C15.2936,7.8066 15.3226,7.6426 15.3826,7.5046 C15.4426,7.3656 15.5176,7.2526 15.6096,7.1626 C15.7006,7.0736 15.8046,7.0066 15.9206,6.9636 C16.0366,6.9206 16.1496,6.8996 16.2616,6.8996 C16.3816,6.8996 16.4886,6.9156 16.5846,6.9476 C16.6786,6.9796 16.7596,7.0156 16.8276,7.0566 C16.9056,7.1016 16.9766,7.1526 17.0406,7.2076 L17.0856,6.9556 L17.5106,6.9556 L17.5106,7.9246 Z" id="Fill-57" fill="#E30021"></path>
                <mask id="mask-18" fill="white">
                    <use xlink:href="#path-17"></use>
                </mask>
                <g id="Clip-60"></g>
                <path d="M18.334,9.756 L18.871,9.756 L18.871,6.956 L18.334,6.956 L18.334,9.756 Z M18.205,6.088 C18.205,5.973 18.244,5.875 18.322,5.797 C18.401,5.718 18.498,5.679 18.614,5.679 C18.73,5.679 18.826,5.718 18.905,5.797 C18.984,5.875 19.023,5.973 19.023,6.088 C19.023,6.204 18.984,6.301 18.905,6.379 C18.826,6.457 18.73,6.497 18.614,6.497 C18.498,6.497 18.401,6.457 18.322,6.379 C18.244,6.301 18.205,6.204 18.205,6.088 L18.205,6.088 Z" id="Fill-59" fill="#E30021" mask="url(#mask-18)"></path>
                <path d="M20.5793,8.1874 C20.7773,8.1874 20.9253,8.1484 21.0213,8.0704 C21.1183,7.9924 21.1673,7.8854 21.1673,7.7504 C21.1673,7.6314 21.1303,7.5344 21.0553,7.4594 C20.9803,7.3844 20.8833,7.3474 20.7643,7.3474 C20.6633,7.3474 20.5743,7.3704 20.4983,7.4154 C20.4213,7.4594 20.3553,7.5204 20.2993,7.5964 C20.2433,7.6734 20.1993,7.7624 20.1673,7.8634 C20.1363,7.9634 20.1183,8.0724 20.1143,8.1874 L20.5793,8.1874 Z M21.6483,9.6214 C21.5663,9.6594 21.4753,9.6904 21.3743,9.7164 C21.2883,9.7394 21.1863,9.7594 21.0693,9.7784 C20.9513,9.7964 20.8233,9.8064 20.6853,9.8064 C20.3193,9.8064 20.0433,9.6834 19.8563,9.4394 C19.6703,9.1954 19.5773,8.8504 19.5773,8.4064 C19.5773,8.1444 19.6083,7.9184 19.6723,7.7284 C19.7353,7.5384 19.8213,7.3814 19.9303,7.2574 C20.0383,7.1344 20.1643,7.0434 20.3083,6.9834 C20.4513,6.9234 20.6033,6.8944 20.7643,6.8944 C21.0483,6.8944 21.2743,6.9584 21.4443,7.0874 C21.6143,7.2154 21.6993,7.4204 21.6993,7.7004 C21.6993,7.8984 21.6643,8.0574 21.5963,8.1764 C21.5263,8.2954 21.4383,8.3884 21.3323,8.4544 C21.2253,8.5194 21.1053,8.5624 20.9713,8.5834 C20.8373,8.6034 20.7063,8.6134 20.5793,8.6134 L20.1203,8.6134 C20.1313,8.7174 20.1493,8.8154 20.1763,8.9044 C20.2023,8.9944 20.2403,9.0714 20.2913,9.1334 C20.3413,9.1984 20.4053,9.2484 20.4833,9.2854 C20.5623,9.3234 20.6573,9.3414 20.7693,9.3414 C20.8703,9.3414 20.9723,9.3314 21.0743,9.3104 C21.1783,9.2904 21.2713,9.2664 21.3573,9.2404 C21.4543,9.2104 21.5523,9.1764 21.6483,9.1394 L21.6483,9.6214 Z" id="Fill-61" fill="#E30021" mask="url(#mask-18)"></path>
                <path d="M23.8889,7.4042 C23.7809,7.3882 23.6719,7.3912 23.5639,7.4122 C23.4549,7.4322 23.3569,7.4582 23.2669,7.4882 C23.1619,7.5252 23.0619,7.5682 22.9649,7.6162 L22.9649,9.7562 L22.4269,9.7562 L22.4269,6.9562 L22.8639,6.9562 L22.9089,7.2082 C23.0059,7.1442 23.1089,7.0892 23.2169,7.0402 C23.3099,6.9992 23.4139,6.9642 23.5309,6.9332 C23.6459,6.9032 23.7659,6.8942 23.8889,6.9052 L23.8889,7.4042 Z" id="Fill-62" fill="#E30021" mask="url(#mask-18)"></path>
                <path d="M25.2102,8.1874 C25.4082,8.1874 25.5562,8.1484 25.6522,8.0704 C25.7502,7.9924 25.7992,7.8854 25.7992,7.7504 C25.7992,7.6314 25.7612,7.5344 25.6872,7.4594 C25.6112,7.3844 25.5152,7.3474 25.3962,7.3474 C25.2942,7.3474 25.2062,7.3704 25.1292,7.4154 C25.0532,7.4594 24.9862,7.5204 24.9312,7.5964 C24.8742,7.6734 24.8302,7.7624 24.7992,7.8634 C24.7672,7.9634 24.7492,8.0724 24.7462,8.1874 L25.2102,8.1874 Z M26.2802,9.6214 C26.1982,9.6594 26.1062,9.6904 26.0062,9.7164 C25.9202,9.7394 25.8182,9.7594 25.7002,9.7784 C25.5832,9.7964 25.4552,9.8064 25.3162,9.8064 C24.9512,9.8064 24.6752,9.6834 24.4882,9.4394 C24.3022,9.1954 24.2082,8.8504 24.2082,8.4064 C24.2082,8.1444 24.2392,7.9184 24.3032,7.7284 C24.3662,7.5384 24.4522,7.3814 24.5612,7.2574 C24.6692,7.1344 24.7952,7.0434 24.9392,6.9834 C25.0822,6.9234 25.2342,6.8944 25.3962,6.8944 C25.6792,6.8944 25.9052,6.9584 26.0752,7.0874 C26.2452,7.2154 26.3302,7.4204 26.3302,7.7004 C26.3302,7.8984 26.2962,8.0574 26.2272,8.1764 C26.1572,8.2954 26.0702,8.3884 25.9642,8.4544 C25.8572,8.5194 25.7362,8.5624 25.6032,8.5834 C25.4682,8.6034 25.3372,8.6134 25.2102,8.6134 L24.7512,8.6134 C24.7632,8.7174 24.7812,8.8154 24.8082,8.9044 C24.8332,8.9944 24.8722,9.0714 24.9222,9.1334 C24.9732,9.1984 25.0372,9.2484 25.1152,9.2854 C25.1932,9.3234 25.2892,9.3414 25.4002,9.3414 C25.5022,9.3414 25.6042,9.3314 25.7062,9.3104 C25.8092,9.2904 25.9032,9.2664 25.9892,9.2404 C26.0862,9.2104 26.1832,9.1764 26.2802,9.1394 L26.2802,9.6214 Z" id="Fill-63" fill="#E30021" mask="url(#mask-18)"></path>
                <path d="M28.6828,9.7557 L28.6828,7.8517 C28.6828,7.7017 28.6598,7.5857 28.6128,7.5017 C28.5658,7.4177 28.4658,7.3757 28.3128,7.3757 C28.2308,7.3757 28.1478,7.3887 28.0638,7.4147 C27.9798,7.4417 27.9018,7.4687 27.8308,7.4987 C27.7488,7.5357 27.6698,7.5747 27.5958,7.6157 L27.5958,9.7557 L27.0588,9.7557 L27.0588,6.9557 L27.4958,6.9557 L27.5398,7.2077 C27.6328,7.1517 27.7308,7.1017 27.8308,7.0567 C27.9168,7.0157 28.0138,6.9797 28.1218,6.9467 C28.2308,6.9157 28.3388,6.8997 28.4478,6.8997 C28.6078,6.8997 28.7388,6.9227 28.8388,6.9697 C28.9398,7.0167 29.0188,7.0767 29.0748,7.1517 C29.1298,7.2267 29.1678,7.3127 29.1898,7.4087 C29.2088,7.5067 29.2198,7.6057 29.2198,7.7057 L29.2198,9.7557 L28.6828,9.7557 Z" id="Fill-64" fill="#E30021" mask="url(#mask-18)"></path>
                <path d="M31.5666,7.6385 C31.5286,7.5905 31.4806,7.5455 31.4206,7.5045 C31.3686,7.4705 31.3046,7.4395 31.2306,7.4095 C31.1556,7.3795 31.0676,7.3645 30.9666,7.3645 C30.8136,7.3645 30.6906,7.4545 30.5976,7.6365 C30.5046,7.8175 30.4576,8.0575 30.4576,8.3555 C30.4576,8.5005 30.4646,8.6345 30.4796,8.7555 C30.4946,8.8775 30.5206,8.9825 30.5576,9.0705 C30.5956,9.1575 30.6446,9.2255 30.7066,9.2745 C30.7676,9.3235 30.8456,9.3465 30.9386,9.3465 C30.9956,9.3465 31.0596,9.3345 31.1316,9.3105 C31.2056,9.2855 31.2726,9.2595 31.3376,9.2295 C31.4116,9.1965 31.4876,9.1565 31.5666,9.1125 L31.5666,7.6385 Z M31.6676,9.7555 L31.6226,9.5035 C31.5366,9.5635 31.4486,9.6165 31.3586,9.6605 C31.2846,9.7015 31.1996,9.7375 31.1046,9.7665 C31.0086,9.7965 30.9186,9.8115 30.8326,9.8115 C30.5416,9.8115 30.3136,9.6995 30.1496,9.4725 C29.9856,9.2465 29.9036,8.8935 29.9036,8.4115 C29.9036,8.1355 29.9326,7.9015 29.9926,7.7085 C30.0516,7.5165 30.1296,7.3615 30.2246,7.2415 C30.3206,7.1215 30.4236,7.0345 30.5356,6.9815 C30.6476,6.9265 30.7576,6.8995 30.8666,6.8995 C30.9746,6.8995 31.0746,6.9145 31.1666,6.9445 C31.2566,6.9745 31.3356,7.0075 31.3986,7.0455 C31.4726,7.0865 31.5406,7.1345 31.5996,7.1915 L31.5666,6.8555 L31.5666,5.4995 L32.1036,5.4995 L32.1036,9.7555 L31.6676,9.7555 Z" id="Fill-65" fill="#E30021" mask="url(#mask-18)"></path>
                <path d="M33.8,8.1874 C33.998,8.1874 34.146,8.1484 34.242,8.0704 C34.34,7.9924 34.389,7.8854 34.389,7.7504 C34.389,7.6314 34.351,7.5344 34.277,7.4594 C34.201,7.3844 34.105,7.3474 33.986,7.3474 C33.884,7.3474 33.796,7.3704 33.719,7.4154 C33.643,7.4594 33.576,7.5204 33.521,7.5964 C33.464,7.6734 33.42,7.7624 33.389,7.8634 C33.357,7.9634 33.339,8.0724 33.336,8.1874 L33.8,8.1874 Z M34.87,9.6214 C34.788,9.6594 34.696,9.6904 34.596,9.7164 C34.51,9.7394 34.408,9.7594 34.29,9.7784 C34.173,9.7964 34.045,9.8064 33.906,9.8064 C33.541,9.8064 33.265,9.6834 33.078,9.4394 C32.892,9.1954 32.798,8.8504 32.798,8.4064 C32.798,8.1444 32.829,7.9184 32.893,7.7284 C32.956,7.5384 33.042,7.3814 33.151,7.2574 C33.259,7.1344 33.385,7.0434 33.529,6.9834 C33.672,6.9234 33.824,6.8944 33.986,6.8944 C34.269,6.8944 34.495,6.9584 34.665,7.0874 C34.835,7.2154 34.92,7.4204 34.92,7.7004 C34.92,7.8984 34.886,8.0574 34.817,8.1764 C34.747,8.2954 34.66,8.3884 34.554,8.4544 C34.447,8.5194 34.326,8.5624 34.193,8.5834 C34.058,8.6034 33.927,8.6134 33.8,8.6134 L33.341,8.6134 C33.353,8.7174 33.371,8.8154 33.398,8.9044 C33.423,8.9944 33.462,9.0714 33.512,9.1334 C33.563,9.1984 33.627,9.2484 33.705,9.2854 C33.783,9.3234 33.879,9.3414 33.99,9.3414 C34.092,9.3414 34.194,9.3314 34.296,9.3104 C34.399,9.2904 34.493,9.2664 34.579,9.2404 C34.676,9.2104 34.773,9.1764 34.87,9.1394 L34.87,9.6214 Z" id="Fill-66" fill="#E30021" mask="url(#mask-18)"></path>
                <path d="M37.6301,7.9696 L37.6301,9.3026 L37.9841,9.3026 C38.0991,9.3026 38.2071,9.2876 38.3081,9.2606 C38.4091,9.2326 38.4961,9.1896 38.5711,9.1316 C38.6461,9.0736 38.7041,9.0026 38.7471,8.9186 C38.7901,8.8346 38.8121,8.7366 38.8121,8.6246 C38.8121,8.4936 38.7901,8.3856 38.7471,8.2996 C38.7041,8.2136 38.6461,8.1466 38.5711,8.0986 C38.4961,8.0496 38.4091,8.0166 38.3081,7.9966 C38.2071,7.9786 38.0991,7.9696 37.9841,7.9696 L37.6301,7.9696 Z M37.6301,6.2886 L37.6301,7.5216 L37.9271,7.5216 C38.0251,7.5216 38.1161,7.5086 38.2041,7.4826 C38.2921,7.4556 38.3691,7.4176 38.4371,7.3666 C38.5041,7.3176 38.5581,7.2536 38.5991,7.1766 C38.6411,7.1006 38.6611,7.0116 38.6611,6.9106 C38.6611,6.7876 38.6411,6.6876 38.5991,6.6086 C38.5581,6.5306 38.5041,6.4666 38.4371,6.4176 C38.3691,6.3696 38.2921,6.3356 38.2041,6.3176 C38.1161,6.2986 38.0251,6.2886 37.9271,6.2886 L37.6301,6.2886 Z M38.6051,7.6956 C38.7021,7.7176 38.7961,7.7476 38.8881,7.7866 C38.9791,7.8256 39.0621,7.8826 39.1341,7.9546 C39.2071,8.0286 39.2661,8.1216 39.3111,8.2356 C39.3561,8.3496 39.3781,8.4906 39.3781,8.6576 C39.3781,8.8486 39.3411,9.0126 39.2691,9.1516 C39.1951,9.2886 39.0991,9.4036 38.9781,9.4916 C38.8561,9.5816 38.7141,9.6486 38.5521,9.6916 C38.3891,9.7346 38.2191,9.7556 38.0391,9.7556 L37.0701,9.7556 L37.0701,5.8356 L37.9841,5.8356 C38.1331,5.8356 38.2801,5.8476 38.4261,5.8716 C38.5711,5.8966 38.7031,5.9446 38.8201,6.0146 C38.9381,6.0856 39.0331,6.1826 39.1061,6.3066 C39.1791,6.4296 39.2151,6.5876 39.2151,6.7826 C39.2151,7.0256 39.1581,7.2206 39.0441,7.3696 C38.9311,7.5196 38.7841,7.6256 38.6051,7.6896 L38.6051,7.6956 Z" id="Fill-67" fill="#E30021" mask="url(#mask-18)"></path>
                <path d="M41.4553,6.3729 C41.4553,6.2759 41.4883,6.1939 41.5563,6.1269 C41.6233,6.0599 41.7053,6.0259 41.8033,6.0259 C41.8993,6.0259 41.9813,6.0599 42.0493,6.1269 C42.1163,6.1939 42.1493,6.2759 42.1493,6.3729 C42.1493,6.4709 42.1163,6.5529 42.0493,6.6199 C41.9813,6.6869 41.8993,6.7209 41.8033,6.7209 C41.7053,6.7209 41.6233,6.6869 41.5563,6.6199 C41.4883,6.5529 41.4553,6.4709 41.4553,6.3729 L41.4553,6.3729 Z M40.2123,6.3729 C40.2123,6.2759 40.2453,6.1939 40.3123,6.1269 C40.3803,6.0599 40.4623,6.0259 40.5593,6.0259 C40.6563,6.0259 40.7383,6.0599 40.8063,6.1269 C40.8733,6.1939 40.9063,6.2759 40.9063,6.3729 C40.9063,6.4709 40.8733,6.5529 40.8063,6.6199 C40.7383,6.6869 40.6563,6.7209 40.5593,6.7209 C40.4623,6.7209 40.3803,6.6869 40.3123,6.6199 C40.2453,6.5529 40.2123,6.4709 40.2123,6.3729 L40.2123,6.3729 Z M40.6433,6.9559 L40.6433,8.8589 C40.6433,9.0129 40.6663,9.1309 40.7133,9.2129 C40.7603,9.2949 40.8593,9.3359 41.0133,9.3359 C41.0953,9.3359 41.1783,9.3239 41.2623,9.2999 C41.3463,9.2749 41.4243,9.2479 41.4943,9.2179 C41.5763,9.1809 41.6553,9.1399 41.7293,9.0949 L41.7293,6.9559 L42.2673,6.9559 L42.2673,9.7559 L41.8303,9.7559 L41.7853,9.5039 C41.6923,9.5629 41.5953,9.6159 41.4943,9.6609 C41.4083,9.7019 41.3113,9.7369 41.2033,9.7669 C41.0953,9.7969 40.9863,9.8109 40.8783,9.8109 C40.7183,9.8109 40.5873,9.7879 40.4863,9.7419 C40.3863,9.6949 40.3083,9.6349 40.2513,9.5599 C40.1953,9.4849 40.1573,9.3989 40.1373,9.3029 C40.1163,9.2049 40.1053,9.1059 40.1053,9.0059 L40.1053,6.9559 L40.6433,6.9559 Z" id="Fill-68" fill="#E30021" mask="url(#mask-18)"></path>
                <path d="M44.5803,7.4042 C44.4723,7.3882 44.3633,7.3912 44.2553,7.4122 C44.1463,7.4322 44.0483,7.4582 43.9583,7.4882 C43.8533,7.5252 43.7533,7.5682 43.6563,7.6162 L43.6563,9.7562 L43.1183,9.7562 L43.1183,6.9562 L43.5553,6.9562 L43.6003,7.2082 C43.6973,7.1442 43.8003,7.0892 43.9083,7.0402 C44.0013,6.9992 44.1053,6.9642 44.2223,6.9332 C44.3373,6.9032 44.4573,6.8942 44.5803,6.9052 L44.5803,7.4042 Z" id="Fill-69" fill="#E30021" mask="url(#mask-18)"></path>
                <path d="M45.594,7.9696 C45.594,8.1896 45.65,8.3526 45.762,8.4566 C45.874,8.5616 46.014,8.6136 46.182,8.6136 C46.346,8.6136 46.486,8.5616 46.599,8.4566 C46.713,8.3526 46.77,8.1896 46.77,7.9696 L46.77,7.6156 C46.725,7.5606 46.671,7.5116 46.608,7.4706 C46.555,7.4336 46.49,7.4006 46.411,7.3696 C46.333,7.3406 46.24,7.3246 46.131,7.3246 C46.068,7.3246 46.003,7.3376 45.939,7.3626 C45.873,7.3856 45.815,7.4256 45.765,7.4796 C45.714,7.5326 45.673,7.6006 45.642,7.6806 C45.61,7.7616 45.594,7.8576 45.594,7.9696 L45.594,7.9696 Z M45.823,9.8506 C45.793,9.8506 45.766,9.8496 45.74,9.8486 C45.713,9.8466 45.691,9.8436 45.672,9.8396 C45.65,9.8356 45.629,9.8316 45.611,9.8286 C45.573,9.8586 45.541,9.8926 45.516,9.9296 C45.49,9.9586 45.467,9.9966 45.448,10.0406 C45.43,10.0856 45.42,10.1346 45.42,10.1876 C45.42,10.3216 45.489,10.4176 45.624,10.4756 C45.761,10.5326 45.947,10.5626 46.182,10.5626 C46.413,10.5626 46.604,10.5276 46.753,10.4586 C46.903,10.3896 46.977,10.2896 46.977,10.1586 C46.977,10.0916 46.964,10.0386 46.938,9.9986 C46.911,9.9596 46.875,9.9296 46.828,9.9066 C46.781,9.8846 46.729,9.8696 46.669,9.8626 C46.61,9.8546 46.546,9.8506 46.479,9.8506 L45.823,9.8506 Z M47.285,7.9246 C47.285,8.1186 47.254,8.2846 47.193,8.4226 C47.131,8.5616 47.049,8.6726 46.947,8.7586 C46.844,8.8446 46.726,8.9076 46.593,8.9486 C46.461,8.9906 46.322,9.0106 46.176,9.0106 L45.969,9.0106 C45.865,9.0106 45.776,9.0286 45.703,9.0616 C45.63,9.0946 45.594,9.1456 45.594,9.2126 C45.594,9.2806 45.622,9.3306 45.678,9.3656 C45.734,9.4026 45.827,9.4196 45.958,9.4196 L46.608,9.4196 C46.906,9.4196 47.126,9.4786 47.268,9.5966 C47.41,9.7136 47.481,9.8886 47.481,10.1196 C47.481,10.3556 47.365,10.5486 47.134,10.7016 C46.903,10.8556 46.569,10.9316 46.131,10.9316 C45.702,10.9316 45.392,10.8726 45.201,10.7556 C45.012,10.6376 44.916,10.4666 44.916,10.2426 C44.916,10.1456 44.936,10.0616 44.975,9.9886 C45.014,9.9146 45.058,9.8546 45.107,9.8066 C45.162,9.7496 45.226,9.7036 45.297,9.6656 C45.26,9.6436 45.228,9.6146 45.201,9.5756 C45.18,9.5466 45.158,9.5086 45.14,9.4616 C45.121,9.4146 45.113,9.3606 45.113,9.2966 C45.113,9.1926 45.132,9.1076 45.171,9.0416 C45.21,8.9766 45.254,8.9246 45.303,8.8876 C45.359,8.8466 45.424,8.8176 45.498,8.7976 C45.416,8.7536 45.344,8.6956 45.281,8.6246 C45.228,8.5616 45.18,8.4806 45.135,8.3806 C45.09,8.2816 45.068,8.1546 45.068,7.9966 C45.068,7.8066 45.097,7.6426 45.157,7.5046 C45.217,7.3656 45.292,7.2526 45.384,7.1626 C45.475,7.0736 45.579,7.0066 45.695,6.9636 C45.811,6.9206 45.924,6.8996 46.036,6.8996 C46.156,6.8996 46.263,6.9156 46.359,6.9476 C46.453,6.9796 46.534,7.0156 46.602,7.0566 C46.68,7.1016 46.751,7.1526 46.815,7.2076 L46.86,6.9556 L47.285,6.9556 L47.285,7.9246 Z" id="Fill-70" fill="#E30021" mask="url(#mask-18)"></path>
                <path d="M48.9426,8.1874 C49.1406,8.1874 49.2886,8.1484 49.3846,8.0704 C49.4816,7.9924 49.5306,7.8854 49.5306,7.7504 C49.5306,7.6314 49.4936,7.5344 49.4186,7.4594 C49.3436,7.3844 49.2466,7.3474 49.1276,7.3474 C49.0266,7.3474 48.9376,7.3704 48.8616,7.4154 C48.7846,7.4594 48.7186,7.5204 48.6626,7.5964 C48.6066,7.6734 48.5626,7.7624 48.5306,7.8634 C48.4996,7.9634 48.4816,8.0724 48.4776,8.1874 L48.9426,8.1874 Z M50.0116,9.6214 C49.9296,9.6594 49.8386,9.6904 49.7376,9.7164 C49.6516,9.7394 49.5496,9.7594 49.4326,9.7784 C49.3146,9.7964 49.1866,9.8064 49.0486,9.8064 C48.6826,9.8064 48.4066,9.6834 48.2196,9.4394 C48.0336,9.1954 47.9406,8.8504 47.9406,8.4064 C47.9406,8.1444 47.9716,7.9184 48.0356,7.7284 C48.0986,7.5384 48.1846,7.3814 48.2936,7.2574 C48.4016,7.1344 48.5276,7.0434 48.6716,6.9834 C48.8146,6.9234 48.9666,6.8944 49.1276,6.8944 C49.4116,6.8944 49.6376,6.9584 49.8076,7.0874 C49.9776,7.2154 50.0626,7.4204 50.0626,7.7004 C50.0626,7.8984 50.0276,8.0574 49.9596,8.1764 C49.8896,8.2954 49.8016,8.3884 49.6956,8.4544 C49.5886,8.5194 49.4686,8.5624 49.3346,8.5834 C49.2006,8.6034 49.0696,8.6134 48.9426,8.6134 L48.4836,8.6134 C48.4946,8.7174 48.5126,8.8154 48.5396,8.9044 C48.5656,8.9944 48.6036,9.0714 48.6546,9.1334 C48.7046,9.1984 48.7686,9.2484 48.8466,9.2854 C48.9256,9.3234 49.0206,9.3414 49.1326,9.3414 C49.2336,9.3414 49.3356,9.3314 49.4376,9.3104 C49.5416,9.2904 49.6346,9.2664 49.7206,9.2404 C49.8176,9.2104 49.9156,9.1764 50.0116,9.1394 L50.0116,9.6214 Z" id="Fill-71" fill="#E30021" mask="url(#mask-18)"></path>
                <path d="M52.2522,7.4042 C52.1442,7.3882 52.0352,7.3912 51.9272,7.4122 C51.8182,7.4322 51.7202,7.4582 51.6302,7.4882 C51.5252,7.5252 51.4252,7.5682 51.3282,7.6162 L51.3282,9.7562 L50.7902,9.7562 L50.7902,6.9562 L51.2272,6.9562 L51.2722,7.2082 C51.3692,7.1442 51.4722,7.0892 51.5802,7.0402 C51.6732,6.9992 51.7772,6.9642 51.8942,6.9332 C52.0092,6.9032 52.1292,6.8942 52.2522,6.9052 L52.2522,7.4042 Z" id="Fill-72" fill="#E30021" mask="url(#mask-18)"></path>
                <path d="M55.9426,9.7557 L55.9426,7.8517 C55.9426,7.7767 55.9396,7.7097 55.9336,7.6507 C55.9286,7.5907 55.9146,7.5397 55.8916,7.4987 C55.8696,7.4577 55.8366,7.4267 55.7916,7.4057 C55.7466,7.3857 55.6846,7.3757 55.6066,7.3757 C55.5436,7.3757 55.4706,7.3887 55.3906,7.4147 C55.3106,7.4417 55.2366,7.4687 55.1706,7.4987 C55.0876,7.5357 55.0066,7.5747 54.9286,7.6157 L54.9286,9.7557 L54.3906,9.7557 L54.3906,7.8517 C54.3906,7.7767 54.3886,7.7097 54.3826,7.6507 C54.3776,7.5907 54.3636,7.5397 54.3406,7.4987 C54.3186,7.4577 54.2856,7.4267 54.2406,7.4057 C54.1956,7.3857 54.1336,7.3757 54.0546,7.3757 C53.9806,7.3757 53.9026,7.3887 53.8206,7.4147 C53.7376,7.4417 53.6656,7.4687 53.6016,7.4987 C53.5236,7.5357 53.4486,7.5747 53.3786,7.6157 L53.3786,9.7557 L52.8396,9.7557 L52.8396,6.9557 L53.2766,6.9557 L53.3216,7.2077 C53.4116,7.1517 53.5046,7.1017 53.6016,7.0567 C53.6876,7.0157 53.7816,6.9797 53.8846,6.9467 C53.9876,6.9157 54.0886,6.8997 54.1896,6.8997 C54.3316,6.8997 54.4446,6.9177 54.5286,6.9527 C54.6126,6.9877 54.6786,7.0267 54.7276,7.0677 C54.7836,7.1157 54.8246,7.1707 54.8506,7.2307 C54.9436,7.1707 55.0416,7.1157 55.1416,7.0677 C55.2276,7.0267 55.3226,6.9877 55.4266,6.9527 C55.5316,6.9177 55.6356,6.8997 55.7406,6.8997 C55.9056,6.8997 56.0356,6.9227 56.1326,6.9697 C56.2296,7.0167 56.3046,7.0777 56.3566,7.1537 C56.4096,7.2317 56.4426,7.3177 56.4576,7.4117 C56.4726,7.5077 56.4796,7.6057 56.4796,7.7057 L56.4796,9.7557 L55.9426,9.7557 Z" id="Fill-73" fill="#E30021" mask="url(#mask-18)"></path>
                <path d="M58.1653,8.1874 C58.3633,8.1874 58.5113,8.1484 58.6073,8.0704 C58.7053,7.9924 58.7543,7.8854 58.7543,7.7504 C58.7543,7.6314 58.7163,7.5344 58.6423,7.4594 C58.5663,7.3844 58.4703,7.3474 58.3513,7.3474 C58.2493,7.3474 58.1613,7.3704 58.0843,7.4154 C58.0083,7.4594 57.9413,7.5204 57.8863,7.5964 C57.8293,7.6734 57.7853,7.7624 57.7543,7.8634 C57.7223,7.9634 57.7043,8.0724 57.7013,8.1874 L58.1653,8.1874 Z M59.2353,9.6214 C59.1533,9.6594 59.0613,9.6904 58.9613,9.7164 C58.8753,9.7394 58.7733,9.7594 58.6553,9.7784 C58.5383,9.7964 58.4103,9.8064 58.2713,9.8064 C57.9063,9.8064 57.6303,9.6834 57.4433,9.4394 C57.2573,9.1954 57.1633,8.8504 57.1633,8.4064 C57.1633,8.1444 57.1943,7.9184 57.2583,7.7284 C57.3213,7.5384 57.4073,7.3814 57.5163,7.2574 C57.6243,7.1344 57.7503,7.0434 57.8943,6.9834 C58.0373,6.9234 58.1893,6.8944 58.3513,6.8944 C58.6343,6.8944 58.8603,6.9584 59.0303,7.0874 C59.2003,7.2154 59.2853,7.4204 59.2853,7.7004 C59.2853,7.8984 59.2513,8.0574 59.1823,8.1764 C59.1123,8.2954 59.0253,8.3884 58.9193,8.4544 C58.8123,8.5194 58.6913,8.5624 58.5583,8.5834 C58.4233,8.6034 58.2923,8.6134 58.1653,8.6134 L57.7063,8.6134 C57.7183,8.7174 57.7363,8.8154 57.7633,8.9044 C57.7883,8.9944 57.8273,9.0714 57.8773,9.1334 C57.9283,9.1984 57.9923,9.2484 58.0703,9.2854 C58.1483,9.3234 58.2443,9.3414 58.3553,9.3414 C58.4573,9.3414 58.5593,9.3314 58.6613,9.3104 C58.7643,9.2904 58.8583,9.2664 58.9443,9.2404 C59.0413,9.2104 59.1383,9.1764 59.2353,9.1394 L59.2353,9.6214 Z" id="Fill-74" fill="#E30021" mask="url(#mask-18)"></path>
                <path d="M60.025,9.756 L60.563,9.756 L60.563,6.956 L60.025,6.956 L60.025,9.756 Z M59.896,6.088 C59.896,5.973 59.935,5.875 60.014,5.797 C60.092,5.718 60.189,5.679 60.305,5.679 C60.42,5.679 60.518,5.718 60.596,5.797 C60.674,5.875 60.713,5.973 60.713,6.088 C60.713,6.204 60.674,6.301 60.596,6.379 C60.518,6.457 60.42,6.497 60.305,6.497 C60.189,6.497 60.092,6.457 60.014,6.379 C59.935,6.301 59.896,6.204 59.896,6.088 L59.896,6.088 Z" id="Fill-75" fill="#E30021" mask="url(#mask-18)"></path>
                <path d="M62.9641,7.4315 C62.8891,7.4125 62.8111,7.3965 62.7291,7.3815 C62.6571,7.3695 62.5801,7.3595 62.4961,7.3475 C62.4121,7.3365 62.3271,7.3305 62.2411,7.3305 C62.0661,7.3305 61.9461,7.3635 61.8831,7.4255 C61.8191,7.4905 61.7881,7.5605 61.7881,7.6385 C61.7881,7.7405 61.8181,7.8185 61.8801,7.8735 C61.9421,7.9305 62.0161,7.9735 62.1021,8.0025 L62.4831,8.1425 C62.5571,8.1685 62.6311,8.2035 62.7031,8.2465 C62.7771,8.2895 62.8421,8.3435 62.9001,8.4095 C62.9571,8.4745 63.0041,8.5535 63.0391,8.6475 C63.0741,8.7405 63.0931,8.8505 63.0931,8.9775 C63.0931,9.0855 63.0781,9.1905 63.0511,9.2905 C63.0231,9.3915 62.9721,9.4805 62.9001,9.5565 C62.8261,9.6335 62.7271,9.6955 62.6001,9.7425 C62.4731,9.7875 62.3111,9.8115 62.1121,9.8115 C62.0161,9.8115 61.9181,9.8075 61.8211,9.7975 C61.7251,9.7875 61.6371,9.7765 61.5581,9.7615 C61.4651,9.7465 61.3771,9.7275 61.2951,9.7045 L61.2951,9.2175 C61.3811,9.2435 61.4721,9.2645 61.5691,9.2805 C61.6481,9.2985 61.7351,9.3135 61.8321,9.3245 C61.9301,9.3355 62.0231,9.3415 62.1121,9.3415 C62.2841,9.3415 62.4011,9.3065 62.4631,9.2385 C62.5251,9.1685 62.5551,9.0895 62.5551,8.9995 C62.5551,8.8805 62.5241,8.7895 62.4601,8.7285 C62.3971,8.6665 62.3091,8.6155 62.1961,8.5745 L61.8211,8.4455 C61.7541,8.4225 61.6871,8.3905 61.6201,8.3475 C61.5531,8.3045 61.4931,8.2495 61.4411,8.1855 C61.3881,8.1195 61.3461,8.0425 61.3151,7.9545 C61.2821,7.8685 61.2671,7.7675 61.2671,7.6565 C61.2671,7.5515 61.2831,7.4525 61.3181,7.3595 C61.3511,7.2655 61.4071,7.1855 61.4851,7.1185 C61.5641,7.0505 61.6661,6.9975 61.7931,6.9585 C61.9201,6.9195 62.0751,6.8995 62.2581,6.8995 C62.3441,6.8995 62.4281,6.9045 62.5101,6.9135 C62.5921,6.9225 62.6671,6.9315 62.7351,6.9395 C62.8131,6.9535 62.8891,6.9665 62.9641,6.9785 L62.9641,7.4315 Z" id="Fill-76" fill="#E30021" mask="url(#mask-18)"></path>
                <path d="M65.1145,7.4042 L64.4815,7.4042 L64.4815,8.7982 C64.4815,8.9852 64.5085,9.1232 64.5595,9.2132 C64.6125,9.3022 64.7275,9.3462 64.9075,9.3462 C64.9365,9.3462 64.9695,9.3452 65.0055,9.3412 C65.0405,9.3382 65.0735,9.3322 65.1025,9.3242 L65.2045,9.3022 L65.2045,9.7722 L65.0695,9.7952 C64.9915,9.8062 64.8995,9.8112 64.7955,9.8112 C64.4775,9.8112 64.2575,9.7312 64.1315,9.5712 C64.0065,9.4102 63.9435,9.1722 63.9435,8.8542 L63.9435,7.4042 L63.5075,7.4042 L63.5075,6.9562 L63.9435,6.9562 L63.9435,5.8362 L64.4815,5.8362 L64.4815,6.9562 L65.1145,6.9562 L65.1145,7.4042 Z" id="Fill-77" fill="#E30021" mask="url(#mask-18)"></path>
                <path d="M66.6155,8.1874 C66.8125,8.1874 66.9605,8.1484 67.0575,8.0704 C67.1545,7.9924 67.2035,7.8854 67.2035,7.7504 C67.2035,7.6314 67.1665,7.5344 67.0915,7.4594 C67.0165,7.3844 66.9195,7.3474 66.8005,7.3474 C66.6995,7.3474 66.6105,7.3704 66.5345,7.4154 C66.4575,7.4594 66.3905,7.5204 66.3355,7.5964 C66.2795,7.6734 66.2355,7.7624 66.2035,7.8634 C66.1725,7.9634 66.1545,8.0724 66.1505,8.1874 L66.6155,8.1874 Z M67.6845,9.6214 C67.6025,9.6594 67.5115,9.6904 67.4105,9.7164 C67.3245,9.7394 67.2225,9.7594 67.1045,9.7784 C66.9875,9.7964 66.8595,9.8064 66.7215,9.8064 C66.3555,9.8064 66.0795,9.6834 65.8925,9.4394 C65.7065,9.1954 65.6125,8.8504 65.6125,8.4064 C65.6125,8.1444 65.6445,7.9184 65.7085,7.7284 C65.7715,7.5384 65.8575,7.3814 65.9665,7.2574 C66.0735,7.1344 66.1995,7.0434 66.3445,6.9834 C66.4875,6.9234 66.6395,6.8944 66.8005,6.8944 C67.0835,6.8944 67.3105,6.9584 67.4805,7.0874 C67.6505,7.2154 67.7355,7.4204 67.7355,7.7004 C67.7355,7.8984 67.7005,8.0574 67.6325,8.1764 C67.5625,8.2954 67.4745,8.3884 67.3685,8.4544 C67.2615,8.5194 67.1415,8.5624 67.0075,8.5834 C66.8725,8.6034 66.7425,8.6134 66.6155,8.6134 L66.1555,8.6134 C66.1675,8.7174 66.1855,8.8154 66.2125,8.9044 C66.2385,8.9944 66.2765,9.0714 66.3265,9.1334 C66.3775,9.1984 66.4415,9.2484 66.5195,9.2854 C66.5985,9.3234 66.6935,9.3414 66.8055,9.3414 C66.9065,9.3414 67.0085,9.3314 67.1105,9.3104 C67.2135,9.2904 67.3075,9.2664 67.3935,9.2404 C67.4905,9.2104 67.5885,9.1764 67.6845,9.1394 L67.6845,9.6214 Z" id="Fill-78" fill="#E30021" mask="url(#mask-18)"></path>
                <path d="M69.9241,7.4042 C69.8171,7.3882 69.7081,7.3912 69.6001,7.4122 C69.4911,7.4322 69.3931,7.4582 69.3031,7.4882 C69.1981,7.5252 69.0981,7.5682 69.0001,7.6162 L69.0001,9.7562 L68.4631,9.7562 L68.4631,6.9562 L68.9001,6.9562 L68.9451,7.2082 C69.0411,7.1442 69.1441,7.0892 69.2521,7.0402 C69.3461,6.9992 69.4501,6.9642 69.5661,6.9332 C69.6821,6.9032 69.8011,6.8942 69.9241,6.9052 L69.9241,7.4042 Z" id="Fill-79" fill="#E30021" mask="url(#mask-18)"></path>
                <path d="M47.633,16.7557 C47.547,16.5547 47.468,16.3587 47.398,16.1677 C47.367,16.0857 47.337,16.0027 47.305,15.9187 C47.274,15.8347 47.243,15.7517 47.215,15.6697 C47.188,15.5867 47.163,15.5097 47.143,15.4377 C47.122,15.3637 47.107,15.2997 47.095,15.2437 L46.832,13.9557 L47.425,13.9557 L47.644,15.2437 C47.654,15.3187 47.677,15.4147 47.711,15.5317 C47.744,15.6497 47.78,15.7647 47.818,15.8767 C47.859,16.0077 47.905,16.1457 47.957,16.2907 C48.01,16.1497 48.056,16.0127 48.097,15.8817 C48.135,15.7707 48.169,15.6537 48.201,15.5347 C48.233,15.4157 48.256,15.3187 48.271,15.2437 L48.495,13.9557 L49.067,13.9557 L48.797,15.2437 C48.775,15.3557 48.734,15.4977 48.674,15.6697 C48.614,15.8407 48.553,16.0077 48.489,16.1677 C48.414,16.3587 48.332,16.5547 48.243,16.7557 L47.633,16.7557 Z" id="Fill-80" fill="#E30021" mask="url(#mask-18)"></path>
                <path d="M49.9514,15.3553 C49.9514,15.5423 49.9674,15.7003 49.9984,15.8293 C50.0304,15.9583 50.0754,16.0613 50.1334,16.1393 C50.1904,16.2173 50.2604,16.2753 50.3404,16.3103 C50.4204,16.3453 50.5074,16.3643 50.6004,16.3643 C50.7914,16.3643 50.9464,16.2753 51.0684,16.0973 C51.1894,15.9203 51.2504,15.6723 51.2504,15.3553 C51.2504,15.1683 51.2344,15.0113 51.2024,14.8823 C51.1714,14.7533 51.1274,14.6503 51.0714,14.5723 C51.0144,14.4933 50.9464,14.4363 50.8664,14.4013 C50.7864,14.3653 50.6974,14.3473 50.6004,14.3473 C50.4064,14.3473 50.2504,14.4373 50.1304,14.6163 C50.0114,14.7953 49.9514,15.0423 49.9514,15.3553 M49.3964,15.4123 C49.3964,15.1683 49.4284,14.9543 49.4894,14.7643 C49.5514,14.5763 49.6354,14.4183 49.7414,14.2893 C49.8474,14.1603 49.9744,14.0633 50.1224,13.9983 C50.2694,13.9323 50.4294,13.8993 50.6004,13.8993 C50.9734,13.8993 51.2674,14.0123 51.4824,14.2383 C51.6974,14.4643 51.8054,14.8183 51.8054,15.2993 C51.8054,15.5423 51.7744,15.7573 51.7154,15.9463 C51.6554,16.1343 51.5724,16.2933 51.4664,16.4223 C51.3594,16.5513 51.2324,16.6483 51.0854,16.7133 C50.9374,16.7793 50.7764,16.8113 50.6004,16.8113 C50.4214,16.8113 50.2584,16.7853 50.1104,16.7303 C49.9634,16.6763 49.8364,16.5913 49.7294,16.4753 C49.6234,16.3603 49.5414,16.2143 49.4834,16.0393 C49.4264,15.8633 49.3964,15.6543 49.3964,15.4123" id="Fill-81" fill="#E30021" mask="url(#mask-18)"></path>
                <path d="M54.1233,16.7557 L54.1233,14.8517 C54.1233,14.7017 54.1003,14.5857 54.0533,14.5017 C54.0063,14.4177 53.9063,14.3757 53.7533,14.3757 C53.6713,14.3757 53.5883,14.3887 53.5043,14.4147 C53.4203,14.4417 53.3423,14.4687 53.2713,14.4987 C53.1893,14.5357 53.1103,14.5747 53.0363,14.6157 L53.0363,16.7557 L52.4993,16.7557 L52.4993,13.9557 L52.9363,13.9557 L52.9803,14.2077 C53.0733,14.1517 53.1713,14.1017 53.2713,14.0567 C53.3573,14.0157 53.4543,13.9797 53.5623,13.9467 C53.6713,13.9157 53.7793,13.8997 53.8883,13.8997 C54.0483,13.8997 54.1793,13.9227 54.2793,13.9697 C54.3803,14.0167 54.4593,14.0767 54.5153,14.1517 C54.5703,14.2267 54.6083,14.3127 54.6303,14.4087 C54.6493,14.5067 54.6603,14.6057 54.6603,14.7057 L54.6603,16.7557 L54.1233,16.7557 Z" id="Fill-82" fill="#E30021" mask="url(#mask-18)"></path>
                <path d="M57.4827,14.9696 L57.4827,16.3026 L57.8357,16.3026 C57.9517,16.3026 58.0597,16.2876 58.1607,16.2606 C58.2607,16.2326 58.3487,16.1896 58.4227,16.1316 C58.4987,16.0736 58.5567,16.0026 58.5997,15.9186 C58.6427,15.8346 58.6647,15.7366 58.6647,15.6246 C58.6647,15.4936 58.6427,15.3856 58.5997,15.2996 C58.5567,15.2136 58.4987,15.1466 58.4227,15.0986 C58.3487,15.0496 58.2607,15.0166 58.1607,14.9966 C58.0597,14.9786 57.9517,14.9696 57.8357,14.9696 L57.4827,14.9696 Z M57.4827,13.2886 L57.4827,14.5216 L57.7797,14.5216 C57.8767,14.5216 57.9687,14.5086 58.0567,14.4826 C58.1437,14.4556 58.2217,14.4176 58.2897,14.3666 C58.3567,14.3176 58.4107,14.2536 58.4517,14.1766 C58.4927,14.1006 58.5127,14.0116 58.5127,13.9106 C58.5127,13.7876 58.4927,13.6876 58.4517,13.6086 C58.4107,13.5306 58.3567,13.4666 58.2897,13.4176 C58.2217,13.3696 58.1437,13.3356 58.0567,13.3176 C57.9687,13.2986 57.8767,13.2886 57.7797,13.2886 L57.4827,13.2886 Z M58.4577,14.6956 C58.5537,14.7176 58.6487,14.7476 58.7397,14.7866 C58.8317,14.8256 58.9137,14.8826 58.9867,14.9546 C59.0587,15.0286 59.1177,15.1216 59.1627,15.2356 C59.2077,15.3496 59.2297,15.4906 59.2297,15.6576 C59.2297,15.8486 59.1937,16.0126 59.1207,16.1516 C59.0477,16.2886 58.9507,16.4036 58.8297,16.4916 C58.7087,16.5816 58.5667,16.6486 58.4037,16.6916 C58.2417,16.7346 58.0707,16.7556 57.8917,16.7556 L56.9227,16.7556 L56.9227,12.8356 L57.8357,12.8356 C57.9847,12.8356 58.1317,12.8476 58.2777,12.8716 C58.4227,12.8966 58.5547,12.9446 58.6727,13.0146 C58.7907,13.0856 58.8847,13.1826 58.9587,13.3066 C59.0317,13.4296 59.0677,13.5876 59.0677,13.7826 C59.0677,14.0256 59.0097,14.2206 58.8967,14.3696 C58.7827,14.5196 58.6357,14.6256 58.4577,14.6896 L58.4577,14.6956 Z" id="Fill-83" fill="#E30021" mask="url(#mask-18)"></path>
                <path d="M60.8147,15.1874 C61.0117,15.1874 61.1597,15.1484 61.2567,15.0704 C61.3537,14.9924 61.4027,14.8854 61.4027,14.7504 C61.4027,14.6314 61.3657,14.5344 61.2907,14.4594 C61.2157,14.3844 61.1187,14.3474 60.9997,14.3474 C60.8987,14.3474 60.8097,14.3704 60.7337,14.4154 C60.6567,14.4594 60.5897,14.5204 60.5347,14.5964 C60.4787,14.6734 60.4337,14.7624 60.4027,14.8634 C60.3717,14.9634 60.3537,15.0724 60.3497,15.1874 L60.8147,15.1874 Z M61.8837,16.6214 C61.8017,16.6594 61.7107,16.6904 61.6097,16.7164 C61.5237,16.7394 61.4217,16.7594 61.3037,16.7784 C61.1867,16.7964 61.0587,16.8064 60.9207,16.8064 C60.5547,16.8064 60.2787,16.6834 60.0917,16.4394 C59.9057,16.1954 59.8127,15.8504 59.8127,15.4064 C59.8127,15.1444 59.8437,14.9184 59.9077,14.7284 C59.9707,14.5384 60.0567,14.3814 60.1657,14.2574 C60.2737,14.1344 60.3987,14.0434 60.5437,13.9834 C60.6867,13.9234 60.8387,13.8944 60.9997,13.8944 C61.2827,13.8944 61.5097,13.9584 61.6797,14.0874 C61.8497,14.2154 61.9347,14.4204 61.9347,14.7004 C61.9347,14.8984 61.8997,15.0574 61.8317,15.1764 C61.7617,15.2954 61.6737,15.3884 61.5677,15.4544 C61.4607,15.5194 61.3407,15.5624 61.2067,15.5834 C61.0717,15.6034 60.9417,15.6134 60.8147,15.6134 L60.3557,15.6134 C60.3667,15.7174 60.3847,15.8154 60.4117,15.9044 C60.4377,15.9944 60.4757,16.0714 60.5257,16.1334 C60.5767,16.1984 60.6407,16.2484 60.7187,16.2854 C60.7977,16.3234 60.8927,16.3414 61.0047,16.3414 C61.1057,16.3414 61.2077,16.3314 61.3097,16.3104 C61.4127,16.2904 61.5067,16.2664 61.5927,16.2404 C61.6897,16.2104 61.7877,16.1764 61.8837,16.1394 L61.8837,16.6214 Z" id="Fill-84" fill="#E30021" mask="url(#mask-18)"></path>
                <path d="M64.1233,14.4042 C64.0163,14.3882 63.9073,14.3912 63.7993,14.4122 C63.6903,14.4322 63.5923,14.4582 63.5023,14.4882 C63.3973,14.5252 63.2973,14.5682 63.1993,14.6162 L63.1993,16.7562 L62.6623,16.7562 L62.6623,13.9562 L63.0993,13.9562 L63.1433,14.2082 C63.2403,14.1442 63.3433,14.0892 63.4513,14.0402 C63.5453,13.9992 63.6493,13.9642 63.7653,13.9332 C63.8813,13.9032 64.0003,13.8942 64.1233,13.9052 L64.1233,14.4042 Z" id="Fill-85" fill="#E30021" mask="url(#mask-18)"></path>
                <polygon id="Fill-86" fill="#E30021" mask="url(#mask-18)" points="64.712 16.756 65.249 16.756 65.249 12.5 64.712 12.5"></polygon>
                <path d="M66.112,16.756 L66.65,16.756 L66.65,13.956 L66.112,13.956 L66.112,16.756 Z M65.983,13.088 C65.983,12.973 66.023,12.875 66.101,12.797 C66.179,12.718 66.276,12.679 66.392,12.679 C66.507,12.679 66.605,12.718 66.683,12.797 C66.761,12.875 66.801,12.973 66.801,13.088 C66.801,13.204 66.761,13.301 66.683,13.379 C66.605,13.457 66.507,13.497 66.392,13.497 C66.276,13.497 66.179,13.457 66.101,13.379 C66.023,13.301 65.983,13.204 65.983,13.088 L65.983,13.088 Z" id="Fill-87" fill="#E30021" mask="url(#mask-18)"></path>
                <path d="M69.136,16.7557 L69.136,14.8517 C69.136,14.7017 69.113,14.5857 69.066,14.5017 C69.019,14.4177 68.919,14.3757 68.766,14.3757 C68.684,14.3757 68.601,14.3887 68.517,14.4147 C68.433,14.4417 68.356,14.4687 68.284,14.4987 C68.202,14.5357 68.124,14.5747 68.049,14.6157 L68.049,16.7557 L67.512,16.7557 L67.512,13.9557 L67.949,13.9557 L67.993,14.2077 C68.086,14.1517 68.184,14.1017 68.284,14.0567 C68.37,14.0157 68.467,13.9797 68.575,13.9467 C68.684,13.9157 68.792,13.8997 68.901,13.8997 C69.061,13.8997 69.192,13.9227 69.292,13.9697 C69.394,14.0167 69.472,14.0767 69.528,14.1517 C69.584,14.2267 69.622,14.3127 69.643,14.4087 C69.663,14.5067 69.673,14.6057 69.673,14.7057 L69.673,16.7557 L69.136,16.7557 Z" id="Fill-88" fill="#E30021" mask="url(#mask-18)"></path>
                <path d="M40.1789,20.3504 C40.0859,20.3354 39.9909,20.3214 39.8939,20.3064 C39.8119,20.2944 39.7239,20.2844 39.6309,20.2724 C39.5369,20.2614 39.4479,20.2554 39.3619,20.2554 C39.1709,20.2554 39.0169,20.3054 38.8969,20.4044 C38.7779,20.5024 38.7179,20.6364 38.7179,20.8044 C38.7179,20.8864 38.7299,20.9584 38.7539,21.0204 C38.7789,21.0814 38.8099,21.1344 38.8499,21.1794 C38.8889,21.2234 38.9329,21.2614 38.9809,21.2934 C39.0299,21.3254 39.0779,21.3544 39.1259,21.3804 L39.6699,21.6604 C39.7369,21.6944 39.8079,21.7394 39.8829,21.7944 C39.9569,21.8504 40.0269,21.9184 40.0899,21.9984 C40.1539,22.0794 40.2049,22.1764 40.2459,22.2894 C40.2869,22.4044 40.3079,22.5384 40.3079,22.6904 C40.3079,22.8554 40.2829,23.0064 40.2329,23.1444 C40.1819,23.2824 40.1049,23.4014 39.9999,23.4994 C39.8959,23.5984 39.7639,23.6764 39.6059,23.7324 C39.4469,23.7884 39.2589,23.8164 39.0419,23.8164 C38.9339,23.8164 38.8269,23.8084 38.7209,23.7934 C38.6149,23.7794 38.5179,23.7624 38.4319,23.7444 C38.3309,23.7244 38.2369,23.7014 38.1469,23.6704 L38.1469,23.1724 C38.2399,23.2024 38.3369,23.2284 38.4379,23.2504 C38.5239,23.2694 38.6179,23.2864 38.7239,23.3014 C38.8279,23.3164 38.9339,23.3234 39.0419,23.3234 C39.2669,23.3234 39.4409,23.2714 39.5669,23.1664 C39.6919,23.0624 39.7539,22.9134 39.7539,22.7184 C39.7539,22.6284 39.7389,22.5514 39.7089,22.4864 C39.6789,22.4204 39.6409,22.3644 39.5939,22.3154 C39.5469,22.2674 39.4949,22.2254 39.4379,22.1894 C39.3789,22.1544 39.3229,22.1214 39.2669,22.0914 L38.7569,21.8234 C38.6979,21.7924 38.6339,21.7494 38.5669,21.6944 C38.4989,21.6374 38.4369,21.5694 38.3789,21.4874 C38.3219,21.4054 38.2729,21.3094 38.2339,21.2024 C38.1949,21.0934 38.1749,20.9684 38.1749,20.8274 C38.1749,20.6774 38.2009,20.5394 38.2559,20.4124 C38.3099,20.2864 38.3869,20.1744 38.4889,20.0794 C38.5889,19.9844 38.7129,19.9094 38.8609,19.8554 C39.0079,19.8014 39.1749,19.7744 39.3619,19.7744 C39.4479,19.7744 39.5369,19.7794 39.6309,19.7884 C39.7239,19.7974 39.8119,19.8074 39.8939,19.8194 C39.9909,19.8334 40.0859,19.8484 40.1789,19.8644 L40.1789,20.3504 Z" id="Fill-89" fill="#E30021" mask="url(#mask-18)"></path>
                <path d="M41.8811,22.1864 C42.0791,22.1864 42.2271,22.1474 42.3231,22.0694 C42.4211,21.9914 42.4701,21.8844 42.4701,21.7494 C42.4701,21.6304 42.4321,21.5334 42.3581,21.4584 C42.2821,21.3834 42.1861,21.3464 42.0671,21.3464 C41.9651,21.3464 41.8771,21.3694 41.8001,21.4144 C41.7241,21.4584 41.6571,21.5194 41.6021,21.5954 C41.5451,21.6724 41.5011,21.7614 41.4701,21.8624 C41.4381,21.9624 41.4201,22.0714 41.4171,22.1864 L41.8811,22.1864 Z M42.9511,23.6204 C42.8691,23.6584 42.7771,23.6894 42.6771,23.7154 C42.5911,23.7384 42.4891,23.7584 42.3711,23.7774 C42.2541,23.7954 42.1261,23.8054 41.9871,23.8054 C41.6221,23.8054 41.3461,23.6824 41.1591,23.4384 C40.9731,23.1944 40.8791,22.8494 40.8791,22.4054 C40.8791,22.1434 40.9101,21.9174 40.9741,21.7274 C41.0371,21.5374 41.1231,21.3804 41.2321,21.2564 C41.3401,21.1344 41.4661,21.0434 41.6101,20.9834 C41.7531,20.9234 41.9051,20.8944 42.0671,20.8944 C42.3501,20.8944 42.5761,20.9584 42.7461,21.0874 C42.9161,21.2154 43.0011,21.4194 43.0011,21.6994 C43.0011,21.8974 42.9671,22.0564 42.8981,22.1754 C42.8281,22.2944 42.7411,22.3874 42.6351,22.4534 C42.5281,22.5184 42.4071,22.5614 42.2741,22.5824 C42.1391,22.6024 42.0081,22.6124 41.8811,22.6124 L41.4221,22.6124 C41.4341,22.7164 41.4521,22.8144 41.4791,22.9034 C41.5041,22.9934 41.5431,23.0704 41.5931,23.1324 C41.6441,23.1974 41.7081,23.2474 41.7861,23.2844 C41.8641,23.3224 41.9601,23.3404 42.0711,23.3404 C42.1731,23.3404 42.2751,23.3304 42.3771,23.3094 C42.4801,23.2894 42.5741,23.2654 42.6601,23.2394 C42.7571,23.2094 42.8541,23.1754 42.9511,23.1384 L42.9511,23.6204 Z" id="Fill-90" fill="#E30021" mask="url(#mask-18)"></path>
                <path d="M45.3537,23.7547 L45.3537,21.8507 C45.3537,21.7007 45.3307,21.5847 45.2837,21.5007 C45.2367,21.4167 45.1367,21.3747 44.9837,21.3747 C44.9017,21.3747 44.8187,21.3877 44.7347,21.4137 C44.6507,21.4407 44.5727,21.4677 44.5017,21.4977 C44.4197,21.5347 44.3407,21.5737 44.2667,21.6147 L44.2667,23.7547 L43.7297,23.7547 L43.7297,20.9557 L44.1667,20.9557 L44.2107,21.2077 C44.3037,21.1517 44.4017,21.1017 44.5017,21.0567 C44.5877,21.0157 44.6847,20.9797 44.7927,20.9467 C44.9017,20.9157 45.0097,20.8997 45.1187,20.8997 C45.2787,20.8997 45.4097,20.9227 45.5097,20.9697 C45.6107,21.0167 45.6897,21.0767 45.7457,21.1517 C45.8007,21.2257 45.8387,21.3117 45.8607,21.4077 C45.8797,21.5057 45.8907,21.6047 45.8907,21.7047 L45.8907,23.7547 L45.3537,23.7547 Z" id="Fill-91" fill="#E30021" mask="url(#mask-18)"></path>
                <path d="M47.1623,22.9149 C47.1623,23.0459 47.1973,23.1509 47.2683,23.2309 C47.3393,23.3109 47.4373,23.3519 47.5643,23.3519 C47.6283,23.3519 47.6973,23.3399 47.7723,23.3149 C47.8473,23.2909 47.9163,23.2639 47.9793,23.2339 C48.0503,23.1969 48.1233,23.1549 48.1973,23.1109 L48.1973,22.4499 L47.6883,22.4499 C47.5393,22.4499 47.4143,22.4879 47.3123,22.5639 C47.2123,22.6419 47.1623,22.7579 47.1623,22.9149 L47.1623,22.9149 Z M46.7863,21.0669 C46.8883,21.0379 46.9953,21.0099 47.1113,20.9829 C47.2083,20.9649 47.3213,20.9459 47.4503,20.9279 C47.5793,20.9089 47.7143,20.8989 47.8563,20.8989 C48.0093,20.8989 48.1413,20.9109 48.2513,20.9339 C48.3613,20.9559 48.4523,20.9969 48.5253,21.0569 C48.5983,21.1159 48.6513,21.1949 48.6843,21.2939 C48.7193,21.3929 48.7353,21.5189 48.7353,21.6719 L48.7353,23.7549 L48.2993,23.7549 L48.2543,23.5029 C48.1683,23.5619 48.0783,23.6149 47.9853,23.6599 C47.9063,23.7009 47.8183,23.7359 47.7223,23.7659 C47.6253,23.7959 47.5333,23.8109 47.4473,23.8109 C47.3093,23.8109 47.1883,23.7879 47.0863,23.7439 C46.9833,23.6989 46.8983,23.6389 46.8313,23.5609 C46.7643,23.4849 46.7143,23.3949 46.6803,23.2929 C46.6463,23.1899 46.6303,23.0809 46.6303,22.9649 C46.6303,22.8159 46.6553,22.6849 46.7053,22.5699 C46.7563,22.4569 46.8263,22.3599 46.9153,22.2819 C47.0053,22.2039 47.1113,22.1439 47.2343,22.1049 C47.3573,22.0659 47.4923,22.0469 47.6383,22.0469 L48.1973,22.0469 L48.1973,21.7889 C48.1973,21.6209 48.1653,21.5079 48.0993,21.4469 C48.0343,21.3879 47.9163,21.3579 47.7443,21.3579 C47.6433,21.3579 47.5383,21.3679 47.4283,21.3889 C47.3173,21.4089 47.2143,21.4309 47.1173,21.4529 C47.0053,21.4829 46.8943,21.5149 46.7863,21.5489 L46.7863,21.0669 Z" id="Fill-92" fill="#E30021" mask="url(#mask-18)"></path>
                <path d="M50.9026,21.4032 L50.2696,21.4032 L50.2696,22.7972 C50.2696,22.9842 50.2966,23.1222 50.3476,23.2122 C50.4006,23.3012 50.5156,23.3452 50.6956,23.3452 C50.7246,23.3452 50.7576,23.3442 50.7936,23.3402 C50.8296,23.3372 50.8616,23.3312 50.8916,23.3232 L50.9926,23.3012 L50.9926,23.7712 L50.8576,23.7942 C50.7796,23.8052 50.6876,23.8102 50.5836,23.8102 C50.2656,23.8102 50.0456,23.7302 49.9206,23.5702 C49.7956,23.4092 49.7326,23.1712 49.7326,22.8532 L49.7326,21.4032 L49.2956,21.4032 L49.2956,20.9562 L49.7326,20.9562 L49.7326,19.8362 L50.2696,19.8362 L50.2696,20.9562 L50.9026,20.9562 L50.9026,21.4032 Z" id="Fill-93" fill="#E30021" mask="url(#mask-18)"></path>
                <path d="M53.0979,21.4305 C53.0239,21.4115 52.9449,21.3955 52.8629,21.3805 C52.7919,21.3685 52.7139,21.3585 52.6299,21.3465 C52.5459,21.3355 52.4609,21.3295 52.3749,21.3295 C52.2009,21.3295 52.0799,21.3625 52.0169,21.4245 C51.9529,21.4895 51.9219,21.5595 51.9219,21.6375 C51.9219,21.7395 51.9519,21.8175 52.0139,21.8725 C52.0759,21.9295 52.1499,21.9725 52.2359,22.0015 L52.6169,22.1415 C52.6909,22.1675 52.7649,22.2025 52.8369,22.2455 C52.9109,22.2885 52.9759,22.3425 53.0339,22.4085 C53.0909,22.4735 53.1379,22.5525 53.1729,22.6465 C53.2089,22.7395 53.2269,22.8495 53.2269,22.9765 C53.2269,23.0845 53.2129,23.1895 53.1849,23.2895 C53.1569,23.3905 53.1069,23.4795 53.0339,23.5555 C52.9609,23.6325 52.8609,23.6945 52.7339,23.7415 C52.6069,23.7865 52.4449,23.8105 52.2459,23.8105 C52.1499,23.8105 52.0529,23.8065 51.9549,23.7965 C51.8589,23.7865 51.7709,23.7755 51.6929,23.7605 C51.5989,23.7455 51.5109,23.7265 51.4289,23.7035 L51.4289,23.2165 C51.5149,23.2425 51.6069,23.2635 51.7029,23.2795 C51.7819,23.2975 51.8689,23.3125 51.9669,23.3235 C52.0639,23.3345 52.1579,23.3405 52.2459,23.3405 C52.4179,23.3405 52.5359,23.3055 52.5969,23.2375 C52.6589,23.1675 52.6889,23.0885 52.6889,22.9985 C52.6889,22.8795 52.6579,22.7885 52.5939,22.7275 C52.5309,22.6655 52.4429,22.6145 52.3299,22.5735 L51.9549,22.4445 C51.8879,22.4215 51.8219,22.3895 51.7539,22.3465 C51.6869,22.3035 51.6269,22.2485 51.5749,22.1845 C51.5229,22.1185 51.4809,22.0415 51.4489,21.9535 C51.4169,21.8675 51.4019,21.7665 51.4019,21.6555 C51.4019,21.5505 51.4179,21.4515 51.4519,21.3585 C51.4859,21.2645 51.5409,21.1855 51.6189,21.1185 C51.6979,21.0505 51.8009,20.9975 51.9279,20.9585 C52.0539,20.9195 52.2089,20.8995 52.3919,20.8995 C52.4779,20.8995 52.5619,20.9045 52.6449,20.9135 C52.7269,20.9225 52.8009,20.9315 52.8689,20.9395 C52.9469,20.9535 53.0239,20.9665 53.0979,20.9785 L53.0979,21.4305 Z" id="Fill-94" fill="#E30021" mask="url(#mask-18)"></path>
                <path d="M55.4944,23.7547 L55.1764,22.7467 C55.1494,22.6717 55.1184,22.6067 55.0834,22.5477 C55.0484,22.4897 55.0134,22.4407 54.9794,22.3997 C54.9384,22.3547 54.8974,22.3137 54.8564,22.2757 L54.4594,22.7187 L54.4594,23.7547 L53.9214,23.7547 L53.9214,19.4997 L54.4594,19.4997 L54.4594,22.1477 L55.3484,20.9557 L56.0264,20.9557 L55.1644,21.9297 C55.2354,21.9887 55.3024,22.0527 55.3664,22.1197 C55.4184,22.1797 55.4724,22.2497 55.5284,22.3317 C55.5844,22.4147 55.6314,22.5037 55.6684,22.6017 L56.0834,23.7547 L55.4944,23.7547 Z" id="Fill-95" fill="#E30021" mask="url(#mask-18)"></path>
                <path d="M57.0793,22.9149 C57.0793,23.0459 57.1143,23.1509 57.1853,23.2309 C57.2573,23.3109 57.3553,23.3519 57.4823,23.3519 C57.5463,23.3519 57.6153,23.3399 57.6893,23.3149 C57.7653,23.2909 57.8333,23.2639 57.8963,23.2339 C57.9683,23.1969 58.0403,23.1549 58.1153,23.1109 L58.1153,22.4499 L57.6053,22.4499 C57.4563,22.4499 57.3313,22.4879 57.2303,22.5639 C57.1303,22.6419 57.0793,22.7579 57.0793,22.9149 L57.0793,22.9149 Z M56.7043,21.0669 C56.8053,21.0379 56.9133,21.0099 57.0293,20.9829 C57.1263,20.9649 57.2393,20.9459 57.3673,20.9279 C57.4963,20.9089 57.6323,20.8989 57.7733,20.8989 C57.9273,20.8989 58.0583,20.9109 58.1683,20.9339 C58.2783,20.9559 58.3703,20.9969 58.4423,21.0569 C58.5163,21.1159 58.5683,21.1949 58.6023,21.2939 C58.6363,21.3929 58.6523,21.5189 58.6523,21.6719 L58.6523,23.7549 L58.2163,23.7549 L58.1713,23.5029 C58.0853,23.5619 57.9963,23.6149 57.9023,23.6599 C57.8243,23.7009 57.7363,23.7359 57.6403,23.7659 C57.5423,23.7959 57.4503,23.8109 57.3653,23.8109 C57.2263,23.8109 57.1063,23.7879 57.0043,23.7439 C56.9013,23.6989 56.8163,23.6389 56.7493,23.5609 C56.6823,23.4849 56.6313,23.3949 56.5983,23.2929 C56.5643,23.1899 56.5473,23.0809 56.5473,22.9649 C56.5473,22.8159 56.5723,22.6849 56.6233,22.5699 C56.6733,22.4569 56.7433,22.3599 56.8333,22.2819 C56.9233,22.2039 57.0293,22.1439 57.1523,22.1049 C57.2753,22.0659 57.4093,22.0469 57.5563,22.0469 L58.1153,22.0469 L58.1153,21.7889 C58.1153,21.6209 58.0823,21.5079 58.0173,21.4469 C57.9523,21.3879 57.8333,21.3579 57.6613,21.3579 C57.5603,21.3579 57.4553,21.3679 57.3453,21.3889 C57.2353,21.4089 57.1323,21.4309 57.0343,21.4529 C56.9233,21.4829 56.8123,21.5149 56.7043,21.5489 L56.7043,21.0669 Z" id="Fill-96" fill="#E30021" mask="url(#mask-18)"></path>
                <path d="M61.1174,23.7547 L61.1174,21.8507 C61.1174,21.7007 61.0944,21.5847 61.0474,21.5007 C61.0004,21.4167 60.9004,21.3747 60.7474,21.3747 C60.6644,21.3747 60.5824,21.3877 60.4984,21.4137 C60.4144,21.4407 60.3364,21.4677 60.2654,21.4977 C60.1834,21.5347 60.1044,21.5737 60.0304,21.6147 L60.0304,23.7547 L59.4934,23.7547 L59.4934,20.9557 L59.9304,20.9557 L59.9744,21.2077 C60.0674,21.1517 60.1654,21.1017 60.2654,21.0567 C60.3514,21.0157 60.4484,20.9797 60.5564,20.9467 C60.6644,20.9157 60.7734,20.8997 60.8814,20.8997 C61.0424,20.8997 61.1724,20.9227 61.2734,20.9697 C61.3754,21.0167 61.4534,21.0767 61.5084,21.1517 C61.5644,21.2257 61.6034,21.3117 61.6234,21.4077 C61.6444,21.5057 61.6544,21.6047 61.6544,21.7047 L61.6544,23.7547 L61.1174,23.7547 Z" id="Fill-97" fill="#E30021" mask="url(#mask-18)"></path>
                <polygon id="Fill-98" fill="#E30021" mask="url(#mask-18)" points="62.3371 23.7547 62.3371 23.3177 63.6371 21.4367 62.4101 21.4367 62.4101 20.9557 64.2641 20.9557 64.2641 21.3917 62.9701 23.2677 64.3251 23.2677 64.3251 23.7547"></polygon>
                <polygon id="Fill-99" fill="#E30021" mask="url(#mask-18)" points="65.02 23.755 65.557 23.755 65.557 19.5 65.02 19.5"></polygon>
                <path d="M67.2542,22.1864 C67.4512,22.1864 67.5992,22.1474 67.6962,22.0694 C67.7932,21.9914 67.8422,21.8844 67.8422,21.7494 C67.8422,21.6304 67.8052,21.5334 67.7302,21.4584 C67.6552,21.3834 67.5582,21.3464 67.4392,21.3464 C67.3382,21.3464 67.2492,21.3694 67.1732,21.4144 C67.0962,21.4584 67.0292,21.5194 66.9742,21.5954 C66.9182,21.6724 66.8742,21.7614 66.8422,21.8624 C66.8112,21.9624 66.7932,22.0714 66.7892,22.1864 L67.2542,22.1864 Z M68.3232,23.6204 C68.2412,23.6584 68.1502,23.6894 68.0492,23.7154 C67.9632,23.7384 67.8612,23.7584 67.7432,23.7774 C67.6262,23.7954 67.4982,23.8054 67.3602,23.8054 C66.9942,23.8054 66.7182,23.6824 66.5312,23.4384 C66.3452,23.1944 66.2512,22.8494 66.2512,22.4054 C66.2512,22.1434 66.2832,21.9174 66.3472,21.7274 C66.4102,21.5374 66.4962,21.3804 66.6052,21.2564 C66.7122,21.1344 66.8382,21.0434 66.9832,20.9834 C67.1262,20.9234 67.2782,20.8944 67.4392,20.8944 C67.7222,20.8944 67.9492,20.9584 68.1192,21.0874 C68.2892,21.2154 68.3742,21.4194 68.3742,21.6994 C68.3742,21.8974 68.3392,22.0564 68.2712,22.1754 C68.2012,22.2944 68.1132,22.3874 68.0072,22.4534 C67.9002,22.5184 67.7802,22.5614 67.6462,22.5824 C67.5112,22.6024 67.3812,22.6124 67.2542,22.6124 L66.7942,22.6124 C66.8062,22.7164 66.8242,22.8144 66.8512,22.9034 C66.8772,22.9934 66.9152,23.0704 66.9652,23.1324 C67.0162,23.1974 67.0802,23.2474 67.1582,23.2844 C67.2372,23.3224 67.3322,23.3404 67.4442,23.3404 C67.5452,23.3404 67.6472,23.3304 67.7492,23.3094 C67.8522,23.2894 67.9462,23.2654 68.0322,23.2394 C68.1292,23.2094 68.2272,23.1754 68.3232,23.1384 L68.3232,23.6204 Z" id="Fill-100" fill="#E30021" mask="url(#mask-18)"></path>
                <path d="M69.113,23.755 L69.651,23.755 L69.651,20.956 L69.113,20.956 L69.113,23.755 Z M68.984,20.088 C68.984,19.973 69.024,19.875 69.102,19.797 C69.18,19.718 69.277,19.679 69.393,19.679 C69.508,19.679 69.606,19.718 69.684,19.797 C69.762,19.875 69.802,19.973 69.802,20.088 C69.802,20.204 69.762,20.301 69.684,20.379 C69.606,20.457 69.508,20.497 69.393,20.497 C69.277,20.497 69.18,20.457 69.102,20.379 C69.024,20.301 68.984,20.204 68.984,20.088 L68.984,20.088 Z" id="Fill-101" fill="#E30021" mask="url(#mask-18)"></path>
            </g>
        </g>
    </g>
</svg>