<?xml version="1.0" encoding="UTF-8"?>
<svg width="98px" height="25px" viewBox="0 0 98 25" version="1.1" xmlns="http://www.w3.org/2000/svg" xmlns:xlink="http://www.w3.org/1999/xlink">
    <!-- Generator: Sketch 60.1 (88133) - https://sketch.com -->
    <title>be-berlin-logo</title>
    <desc>Created with Sketch.</desc>
    <defs>
        <path d="M0.173844,0.565488 L0.173844,1.035936 C0.173844,3.859812 0.17622,6.683688 0.172656,9.507564 L0.172656,9.507564 C0.172656,9.80694 0.161964,10.105128 0.154836,10.403316 L0.154836,10.403316 L2.398968,10.403316 C2.388276,10.242936 2.370456,10.081368 2.369268,9.922176 L2.369268,9.922176 C2.36808,6.960492 2.36808,3.998808 2.36808,1.038312 L2.36808,1.038312 L2.36808,0.565488 L0.173844,0.565488 Z" id="path-1"></path>
        <path d="M0.053388,0.561924 L0.053388,1.032372 C0.053388,3.061476 0.0522,5.089392 0.054576,7.118496 L0.054576,7.118496 C0.055764,8.212644 0.06408,9.30798 0.07002,10.403316 L0.07002,10.403316 L2.23812,10.403316 C2.233368,10.241748 2.222676,10.08018 2.221488,9.9198 L2.221488,9.9198 C2.2203,6.956928 2.221488,3.995244 2.221488,1.03356 L2.221488,1.03356 L2.221488,0.561924 L0.053388,0.561924 Z" id="path-3"></path>
        <path d="M0.304128,0.316404 C0.282744,0.763092 0.294624,1.212156 0.294624,1.660032 L0.294624,1.660032 C0.294624,2.119788 0.280368,2.580732 0.305316,3.040488 L0.305316,3.040488 C0.311256,3.141468 0.447876,3.31848 0.532224,3.32442 L0.532224,3.32442 C1.215324,3.358872 1.9008,3.374316 2.545884,3.08088 L2.545884,3.08088 C3.147012,2.805264 3.452328,2.312244 3.429756,1.656468 L3.429756,1.656468 C3.407184,0.968616 3.089988,0.432828 2.446092,0.274824 L2.446092,0.274824 C1.815264,0.121572 1.149984,0.10494 0.497772,0.052668 L0.497772,0.052668 C0.496584,0.052668 0.496584,0.052668 0.495396,0.052668 L0.495396,0.052668 C0.43362,0.052668 0.307692,0.222552 0.304128,0.316404 L0.304128,0.316404 Z" id="path-5"></path>
        <path d="M0.598752,0.377784 C0.495396,0.38016 0.311256,0.514404 0.30888,0.592812 L0.30888,0.592812 C0.289872,1.483812 0.295812,2.379564 0.295812,3.291948 L0.295812,3.291948 C1.161864,3.43332 2.095632,3.303828 2.599344,2.989008 L2.599344,2.989008 C3.103056,2.673 3.378672,1.980396 3.233736,1.392336 L3.233736,1.392336 C3.098304,0.83754 2.6433,0.456192 2.014848,0.411048 L2.014848,0.411048 C1.670328,0.384912 1.323432,0.373032 0.977724,0.373032 L0.977724,0.373032 C0.850608,0.373032 0.72468,0.37422 0.598752,0.377784 L0.598752,0.377784 Z" id="path-7"></path>
        <path d="M0.35046,1.980396 C1.255716,1.980396 2.1384,1.98396 3.019896,1.970892 L3.019896,1.970892 C3.084048,1.969704 3.199284,1.842588 3.20166,1.768932 L3.20166,1.768932 C3.233736,1.058508 2.682504,0.470448 1.968516,0.430056 L1.968516,0.430056 C1.935252,0.42768 1.901988,0.42768 1.868724,0.42768 L1.868724,0.42768 C1.034748,0.42768 0.43956,1.0098 0.35046,1.980396 L0.35046,1.980396 Z" id="path-9"></path>
        <polygon id="path-11" points="0.5727348 0.1968516 56.681856 0.1968516 56.681856 23.4709596 0.5727348 23.4709596"></polygon>
    </defs>
    <g id="Page-1" stroke="none" stroke-width="1" fill="none" fill-rule="evenodd">
        <g id="hackthecrisis-desktop" transform="translate(-975.000000, -4288.000000)">
            <g id="be-berlin-logo" transform="translate(975.000000, 4288.000000)">
                <g id="Group-5" transform="translate(26.928000, 13.662000)" fill="#E30021" fill-rule="nonzero">
                    <path d="M4.791006,10.4029596 C4.804074,10.2425796 4.825458,10.0821996 4.825458,9.9230076 C4.826646,6.9708276 4.826646,4.0198356 4.826646,1.0688436 L4.826646,0.5627556 L6.978114,0.5627556 C6.985242,0.7160076 6.99831,0.8740116 6.99831,1.0296396 C6.999498,3.9936996 6.99831,6.9589476 7.000686,9.9230076 C7.000686,10.0821996 7.023258,10.2425796 7.035138,10.4029596 L4.791006,10.4029596 Z" id="Fill-1"></path>
                    <path d="M0.1549548,10.4029596 C0.1620828,10.1047716 0.1739628,9.8065836 0.1739628,9.5083956 C0.1763388,6.6845196 0.1751508,3.8594556 0.1751508,1.0355796 L0.1751508,0.5651316 L2.3681988,0.5651316 L2.3681988,1.0379556 C2.3681988,3.9984516 2.3681988,6.9601356 2.3693868,9.9218196 C2.3705748,10.0810116 2.3883948,10.2425796 2.3990868,10.4029596 L0.1549548,10.4029596 Z" id="Fill-3"></path>
                </g>
                <g id="Group-8" transform="translate(26.928000, 13.662000)">
                    <g id="Fill-6-Clipped">
                        <mask id="mask-2" fill="white">
                            <use xlink:href="#path-1"></use>
                        </mask>
                        <g id="path-1"></g>
                        <polygon id="Fill-6" fill="#E30021" fill-rule="nonzero" mask="url(#mask-2)" points="-5.785164 16.342128 8.338968 16.342128 8.338968 -5.3757 -5.785164 -5.3757"></polygon>
                    </g>
                </g>
                <path d="M36.4303764,24.0649596 C36.4244364,22.9696236 36.4161204,21.8742876 36.4149324,20.7801396 C36.4113684,18.7510356 36.4137444,16.7231196 36.4137444,14.6940156 L36.4137444,14.2247556 L38.5818444,14.2247556 L38.5818444,14.6952036 C38.5818444,17.6568876 38.5806564,20.6197596 38.5818444,23.5814436 C38.5830324,23.7430116 38.5925364,23.9033916 38.5984764,24.0649596 L36.4303764,24.0649596 Z" id="Fill-9" fill="#E30021" fill-rule="nonzero"></path>
                <g id="Group-13" transform="translate(36.360000, 13.662000)">
                    <g id="Fill-11-Clipped">
                        <mask id="mask-4" fill="white">
                            <use xlink:href="#path-3"></use>
                        </mask>
                        <g id="path-3"></g>
                        <polygon id="Fill-11" fill="#E30021" fill-rule="nonzero" mask="url(#mask-4)" points="-5.886612 16.342128 8.179308 16.342128 8.179308 -5.378076 -5.886612 -5.378076"></polygon>
                    </g>
                </g>
                <g id="Group-24" transform="translate(-0.000000, 0.594000)" fill="#E30021" fill-rule="nonzero">
                    <path d="M6.078402,8.1174852 C6.68547,7.7183172 7.191558,7.3060812 7.764174,7.0280892 C8.349858,6.7417812 8.983062,6.4946772 9.621018,6.3901332 C10.918314,6.1786692 11.94831,6.9057252 12.408066,8.2386612 C12.867822,9.5715972 12.853566,10.9377972 12.620718,12.2992452 C12.34629,13.8911652 11.739222,15.3595332 10.746054,16.6461372 C9.208782,18.6384132 7.198686,19.5270372 4.670622,19.2799332 C3.33531,19.1492532 1.990494,19.1254932 0.649242,19.0518372 C0.575586,19.0482732 0.504306,19.0340172 0.39501,19.0209492 C1.382238,13.8008772 2.36709,8.5974372 3.36501,3.3310332 C2.736558,3.3310332 2.166318,3.3203412 1.598454,3.3369732 C1.335906,3.3429132 1.215918,3.2858892 1.223046,2.9900772 C1.242054,2.1798612 1.23255,1.3696452 1.227798,0.5606172 C1.227798,0.3681612 1.237302,0.2244132 1.498662,0.22558667 C3.279474,0.2339172 5.061474,0.2315412 6.842286,0.2351052 C6.889806,0.2351052 6.936138,0.2553012 6.955146,0.2600532 C7.337682,2.9473092 6.564294,5.4955692 6.078402,8.1174852 M4.495986,16.3550772 C4.842882,16.3930932 5.125626,16.4180412 5.40837,16.4560572 C6.231654,16.5629772 6.919506,16.2754812 7.435098,15.6589092 C7.811694,15.2050932 8.150274,14.7013812 8.412822,14.1727212 C8.884458,13.2187572 9.181458,12.2030172 9.147006,11.1207492 C9.113742,10.0990692 8.442522,9.5775372 7.500438,9.9363132 C6.88743,10.1715372 6.336198,10.5778332 5.77665,10.9389852 C5.654286,11.0173932 5.579442,11.2193532 5.543802,11.3797332 C5.310954,12.4097292 5.095926,13.4432892 4.877334,14.4780372 C4.750218,15.0839172 4.63023,15.6909852 4.495986,16.3550772" id="Fill-14"></path>
                    <path d="M22.6778508,16.0981128 C22.6778508,16.8845688 22.6814148,17.6532048 22.6707228,18.4206528 C22.6707228,18.4848048 22.5946908,18.5881608 22.5341028,18.6036048 C20.9219868,19.0491048 19.2944268,19.5017328 17.6098428,19.2261168 C15.6615228,18.9065448 14.4913428,17.6734008 13.9935708,15.7927968 C13.2843348,13.1102928 14.3321508,8.9796168 17.3603628,7.2593928 C19.1613708,6.2377128 21.0704868,5.9775408 23.0176188,6.8483448 C23.9561388,7.2665208 24.4931148,8.0541648 24.6926988,9.0520848 C25.1774028,11.4756048 23.8824828,13.3870968 21.4363908,13.9098168 C20.2662108,14.1592968 19.0841508,14.1117768 17.9009028,14.1165288 C17.3710548,14.1189048 17.3508588,14.1426648 17.4316428,14.6641968 C17.6181588,15.8533848 18.3511548,16.5198528 19.5593508,16.4616408 C20.5121268,16.4141208 21.4589628,16.2406728 22.4081748,16.1242488 C22.4806428,16.1159328 22.5531108,16.1099928 22.6778508,16.0981128 M17.7809148,12.1254408 C18.3559068,12.0957408 18.8726868,12.1230648 19.3645188,12.0292128 C20.1640428,11.8759608 20.7414108,11.4031368 20.9861388,10.6024248 C21.1025628,10.2210768 21.1037508,9.8219088 20.7818028,9.5249088 C20.4788628,9.2457288 20.1058308,9.2421648 19.7304228,9.3704688 C19.6139988,9.4096728 19.4940108,9.4560048 19.3906548,9.5225328 C18.4830228,10.1153448 18.0113868,10.9825848 17.7809148,12.1254408" id="Fill-16"></path>
                    <path d="M40.97115,11.528352 C40.825026,11.515284 40.677714,11.490336 40.53159,11.490336 C36.222714,11.489148 31.91265,11.489148 27.602586,11.489148 L27.108378,11.489148 C27.108378,10.765656 27.103626,10.073052 27.116694,9.380448 C27.117882,9.323424 27.234306,9.245016 27.310338,9.216504 C27.38637,9.186804 27.482598,9.208188 27.569322,9.208188 C31.903146,9.208188 36.238158,9.207 40.571982,9.207 L40.964022,9.207 L40.964022,11.536668 L40.97115,11.528352" id="Fill-18"></path>
                    <path d="M39.83661,7.86800821 C38.931354,7.86800821 38.225682,7.1599572 38.2303865,6.2594532 C38.235186,5.3660772 38.964618,4.6520892 39.86037,4.6615932 C40.738302,4.6722852 41.439222,5.3791452 41.4427981,6.2630172 C41.445162,7.1682732 40.74543,7.8691932 39.83661,7.86800821" id="Fill-20"></path>
                    <path d="M58.5069804,11.9552004 C58.5069804,11.5073244 58.4951004,11.0594484 58.5164844,10.6127604 C58.5200484,10.5177204 58.6495404,10.3442724 58.7101284,10.3478364 C59.3623404,10.4001084 60.0264324,10.4167404 60.6584484,10.5711804 C61.3023444,10.7279964 61.6195404,11.2649724 61.6421124,11.9528244 C61.6634964,12.6086004 61.3593684,13.1004324 60.7582404,13.3760484 C60.1131564,13.6706724 59.4264924,13.6552284 58.7433924,13.6195884 C58.6602324,13.6148364 58.5236124,13.4378244 58.5176724,13.3356564 C58.4927244,12.8759004 58.5069804,12.4161444 58.5069804,11.9552004" id="Fill-22"></path>
                </g>
                <g id="Group-27" transform="translate(58.212000, 10.890000)">
                    <g id="Fill-25-Clipped">
                        <mask id="mask-6" fill="white">
                            <use xlink:href="#path-5"></use>
                        </mask>
                        <g id="path-5"></g>
                        <polygon id="Fill-25" fill="#E30021" fill-rule="nonzero" mask="url(#mask-6)" points="-5.650128 9.283428 9.370944 9.283428 9.370944 -5.887332 -5.650128 -5.887332"></polygon>
                    </g>
                </g>
                <path d="M58.5081684,9.8263044 C58.5081684,8.9127324 58.5010404,8.0193564 58.5212364,7.1271684 C58.5236124,7.0487604 58.7077524,6.9145164 58.8111084,6.9121404 C59.2815564,6.9002604 59.7567564,6.9097644 60.2272044,6.9442164 C60.8556564,6.9893604 61.3094724,7.3718964 61.4460924,7.9255044 C61.5910284,8.5147524 61.3154124,9.2073564 60.8105124,9.5221764 C60.3079884,9.8381844 59.3742204,9.9676764 58.5081684,9.8263044" id="Fill-28" fill="#E30021" fill-rule="nonzero"></path>
                <g id="Group-32" transform="translate(58.212000, 6.534000)">
                    <g id="Fill-30-Clipped">
                        <mask id="mask-8" fill="white">
                            <use xlink:href="#path-7"></use>
                        </mask>
                        <g id="path-7"></g>
                        <polygon id="Fill-30" fill="#E30021" fill-rule="nonzero" mask="url(#mask-8)" points="-5.645376 9.288972 9.211752 9.288972 9.211752 -5.566968 -5.645376 -5.566968"></polygon>
                    </g>
                </g>
                <path d="M65.6906976,10.8902772 C65.7821736,9.8816652 66.4213176,9.2912292 67.3075656,9.3399372 C68.0227416,9.3803292 68.5739736,9.9695772 68.5418976,10.6788132 C68.5383336,10.7524692 68.4254736,10.8795852 68.3601336,10.8807732 C67.4786376,10.8938412 66.5971416,10.8902772 65.6906976,10.8902772" id="Fill-33" fill="#E30021" fill-rule="nonzero"></path>
                <g id="Group-37" transform="translate(65.340000, 8.910000)">
                    <g id="Fill-35-Clipped">
                        <mask id="mask-10" fill="white">
                            <use xlink:href="#path-9"></use>
                        </mask>
                        <g id="path-9"></g>
                        <polygon id="Fill-35" fill="#E30021" fill-rule="nonzero" mask="url(#mask-10)" points="-5.58954 7.920396 9.142848 7.920396 9.142848 -5.51232 -5.58954 -5.51232"></polygon>
                    </g>
                </g>
                <g id="Group-102" transform="translate(40.392000, 0.594000)">
                    <g id="Group-45">
                        <g id="Fill-43-Clipped">
                            <mask id="mask-12" fill="white">
                                <use xlink:href="#path-11"></use>
                            </mask>
                            <g id="path-13"></g>
                            <path d="M0.6000588,23.4709596 C0.6095628,23.3474076 0.6285708,23.2238556 0.6285708,23.1003036 C0.6297588,19.3771116 0.6297588,15.6515436 0.6273828,11.9271636 C0.6273828,11.7941076 0.5964948,11.6610516 0.5786748,11.5279956 L0.5727348,11.5363116 C0.7449948,11.5268076 0.9196308,11.5077996 1.0918908,11.5077996 C4.5941148,11.5066116 8.0963388,11.5066116 11.5985628,11.5066116 L12.1343508,11.5066116 C12.1343508,10.7581716 12.1402908,10.0406196 12.1212828,9.3254436 C12.1200948,9.2755476 11.9371428,9.1900116 11.8373508,9.1888236 C11.1898908,9.1757556 10.5412428,9.1816956 9.8925948,9.1816956 L5.7797388,9.1816956 L5.3425548,9.1816956 L5.3425548,0.2253636 C5.4625428,0.2170476 5.5920348,0.1980396 5.7227148,0.1980396 C22.6101348,0.1968516 39.4963668,0.1968516 56.3837868,0.1968516 C56.4835788,0.1968516 56.5821828,0.2099196 56.6819748,0.2158596 L56.6819748,19.1347596 C56.5703028,19.1240676 56.4598188,19.1038716 56.3493348,19.1038716 C41.7476268,19.1014956 27.1447308,19.1038716 12.5430228,19.0943676 C12.1794948,19.0943676 12.1117788,19.2214836 12.1153428,19.5458076 C12.1295988,20.8549836 12.1177188,22.1617836 12.1141548,23.4709596 L9.9460548,23.4709596 C9.9472428,20.3203836 9.9448668,17.1698076 9.9543708,14.0192316 C9.9555588,13.7341116 9.8842788,13.6200636 9.5825268,13.6343196 C9.0598068,13.6557036 8.5358988,13.6402596 8.0131788,13.6402596 C7.4892708,13.6402596 7.4892708,13.6402596 7.4880828,14.1701076 C7.4857068,17.2695996 7.4821428,20.3714676 7.4785788,23.4709596 L5.3104788,23.4709596 L5.3104788,14.1772356 C5.3104788,14.0655636 5.3282988,13.9467636 5.2997868,13.8434076 C5.2784028,13.7673756 5.1904908,13.6545156 5.1310908,13.6533276 C4.3790868,13.6414476 3.6247068,13.6450116 2.8596348,13.6450116 C2.8477548,13.7590596 2.8346868,13.8184596 2.8346868,13.8790476 C2.8370628,17.0759556 2.8394388,20.2740516 2.8430028,23.4709596 L0.6000588,23.4709596 Z M16.6689468,6.2164476 L16.6689468,6.6868956 L16.6689468,12.8502396 C16.6689468,13.7305476 16.6725108,13.7495556 15.8147748,13.9016196 C15.3930348,13.9764636 15.5403468,14.2663356 15.5165868,14.4991836 C15.4833228,14.7938076 15.6935988,14.7688596 15.8836788,14.7688596 C17.0039628,14.7688596 18.1242468,14.7783636 19.2445308,14.7652956 C19.9870308,14.7581676 20.7057708,14.6179836 21.3686748,14.2687116 C22.3582788,13.7459916 22.7728908,12.8918196 22.7336868,11.8071756 C22.6968588,10.8009396 22.1598828,10.1404116 21.2344308,9.7804476 C21.1738428,9.7554996 21.1180068,9.7186716 21.0360348,9.6747156 C21.1869108,9.5891796 21.3080868,9.5274036 21.4233228,9.4549356 C22.2881868,8.9155836 22.6374588,8.1291276 22.4984628,7.1323956 C22.3665948,6.1914996 21.8129868,5.5963116 20.8970388,5.3800956 C20.4182748,5.2684236 19.9157508,5.2042716 19.4239188,5.1947676 C18.2026548,5.1757596 16.9837668,5.1995196 15.7636908,5.2078356 C15.6935988,5.2090236 15.6223188,5.2304076 15.5403468,5.2434756 C15.5296548,5.3575236 15.5284668,5.4561276 15.5118348,5.5523556 C15.4441188,5.9313276 15.6163788,6.0976476 15.9858468,6.1202196 C16.2056268,6.1320996 16.4218428,6.1796196 16.6689468,6.2164476 L16.6689468,6.2164476 Z M45.2272788,14.7688596 C45.6062508,14.7688596 45.9388908,14.7546036 46.2715308,14.7736116 C46.5578388,14.7890556 46.6314948,14.6714436 46.6279308,14.4005796 C46.6112988,13.3931556 46.6065468,12.3833556 46.6148628,11.3747436 C46.6219908,10.4837436 46.8120708,9.6533316 47.6163468,9.1234836 C48.0475908,8.8395516 48.5406108,8.7100596 49.0324428,8.9714196 C49.4791308,9.2090196 49.5159588,9.6592716 49.5159588,10.1083356 L49.5159588,13.7329236 C49.5171468,14.8520196 49.5159588,14.8460796 50.6552508,14.7736116 C50.8667148,14.7593556 50.9320548,14.6845116 50.9320548,14.4801756 C50.9261148,12.8858796 50.9510628,11.2903956 50.9201748,9.6972876 C50.8976028,8.4902796 50.1574788,7.8226236 48.9552228,7.8463836 C48.0606588,7.8630156 47.2646988,8.1113076 46.6588188,8.8585596 C46.6208028,8.6245236 46.6445628,8.4011796 46.6112988,8.1885276 C46.5958548,8.0899236 46.4663628,7.9295436 46.3927068,7.9307316 C45.6395148,7.9473636 44.8863228,7.9913196 44.1343188,8.0281476 L44.1343188,8.8039116 C44.3778588,8.8395516 44.5976388,8.8906356 44.8186068,8.8965756 C45.1251108,8.9072676 45.2391588,9.0129996 45.2355948,9.3456396 C45.2165868,10.9898316 45.2260908,12.6340236 45.2272788,14.2782156 L45.2272788,14.7688596 Z M29.2142268,13.4478036 C28.5952788,13.5535356 28.0024668,13.6949076 27.4013388,13.7495556 C26.0672148,13.8731076 25.2807588,13.1614956 25.1762148,11.8214316 C25.1477028,11.4674076 25.2332388,11.3438556 25.6110228,11.3509836 C26.7930828,11.3735556 27.9775188,11.3497956 29.1595788,11.3664276 C29.4767748,11.3688036 29.5706268,11.2606956 29.5634988,10.9577556 C29.5480548,10.2651516 29.4910308,9.5749236 29.1168108,8.9797356 C28.9112868,8.6530356 28.6344828,8.3251476 28.3089708,8.1279396 C26.7918948,7.2108036 24.6689388,8.0031996 24.0773148,9.6723396 C23.7577428,10.5740316 23.7019068,11.4982956 23.8741668,12.4344396 C24.1165188,13.7424276 24.8542668,14.5395756 26.0208828,14.7795516 C26.8025868,14.9387436 27.5807268,14.9256756 28.3529268,14.7272796 C29.3152068,14.4801756 29.3306508,14.4564156 29.2142268,13.4478036 L29.2142268,13.4478036 Z M35.0461188,4.8146076 C34.9130628,5.5274076 34.9190028,5.5357236 35.5308228,5.6367036 C35.5807188,5.6450196 35.6306148,5.6664036 35.6781348,5.6640276 C36.0547308,5.6378916 36.1129428,5.8374756 36.1105668,6.1701156 C36.0974988,8.4118716 36.1034388,10.6536276 36.1046268,12.8953836 C36.1046268,13.7543076 36.1070028,13.7697516 35.2718388,13.9099356 C34.8358428,13.9824036 35.0271108,14.2924716 34.9938468,14.5158156 C34.9546428,14.7866796 35.1589788,14.7688596 35.3359908,14.7688596 C36.3327228,14.7688596 37.3282668,14.7700476 38.3249988,14.7676716 C38.4307308,14.7676716 38.5364628,14.7427236 38.6410068,14.7308436 L38.6410068,13.9740876 C38.3927148,13.9289436 38.1622428,13.8576636 37.9305828,13.8529116 C37.5765588,13.8469716 37.5159708,13.6723356 37.5183468,13.3587036 C37.5302268,11.5410636 37.5242868,9.7234236 37.5242868,7.9034076 C37.5242868,6.9696396 37.5242868,6.0358716 37.5230988,5.1021036 C37.5219108,4.9440996 37.5551748,4.7611476 37.2985668,4.7670876 C36.5429988,4.7849076 35.7874308,4.7991636 35.0461188,4.8146076 L35.0461188,4.8146076 Z M32.6879388,8.8431156 C32.6879388,8.6470956 32.6724948,8.4498876 32.6903148,8.2562436 C32.7152628,7.9877556 32.5976508,7.9069716 32.3446068,7.9212276 C31.7482308,7.9521156 31.1506668,7.9794396 30.5542908,7.9830036 C30.2656068,7.9841916 30.2062068,8.1089316 30.2014548,8.3702916 C30.1967028,8.6672916 30.2489748,8.8538076 30.5982468,8.8371756 C30.7206108,8.8312356 30.8429748,8.8906356 30.9665268,8.8894476 C31.2730308,8.8870716 31.3573788,9.0296316 31.3550028,9.3278196 C31.3407468,10.8080676 31.3490628,12.2895036 31.3490628,13.7709396 C31.3490628,14.7938076 31.3490628,14.7854916 32.3754948,14.7759876 C32.6487348,14.7724236 32.7473388,14.6952036 32.7425868,14.4136476 C32.7283308,13.4549316 32.7057588,12.4950276 32.7497148,11.5386876 C32.7722868,11.0242836 32.8756428,10.5027516 33.0277068,10.0109196 C33.1964028,9.4620636 33.6193308,9.1662516 34.2157068,9.1626876 L34.8382188,9.1626876 C34.8382188,8.7706476 34.8548508,8.4106836 34.8263388,8.0542836 C34.8203988,7.9782516 34.6552668,7.8570756 34.5602268,7.8535116 C33.7630788,7.8226236 33.1191828,8.0922996 32.6879388,8.8431156 L32.6879388,8.8431156 Z M43.2944028,13.9681476 C42.9855228,13.9170636 42.7039668,13.8469716 42.4212228,13.8303396 C42.1681788,13.8137076 42.1111548,13.6984716 42.1170948,13.4727516 C42.1289748,13.0248756 42.1194708,12.5758116 42.1194708,12.1279356 C42.1194708,10.8448956 42.1206588,9.5618556 42.1194708,8.2788156 C42.1194708,8.1065556 42.1539228,7.9034076 41.8794948,7.9140996 C41.1952068,7.9437996 40.5109188,7.9770636 39.8278188,8.0091396 C39.5367588,8.0233956 39.5866548,8.2431756 39.5902188,8.4213756 C39.5937828,8.5960116 39.5296308,8.8050996 39.8290068,8.8312356 C40.1331348,8.8561836 40.4336988,8.9238996 40.7544588,8.9761716 L40.7544588,12.8585556 C40.7544588,13.7543076 40.7580228,13.7721276 39.8812788,13.9111236 C39.4500348,13.9800276 39.6211068,14.2817796 39.5925948,14.5086876 C39.5581428,14.7759876 39.7470348,14.7700691 39.9299868,14.7700691 C40.9647348,14.7688596 41.9982948,14.7700691 43.0330428,14.7664836 C43.1150148,14.7664836 43.1981748,14.7427236 43.2944028,14.7296556 L43.2944028,13.9681476 Z M41.4054828,5.1151716 C40.8780108,5.1092316 40.4717148,5.4929556 40.4562708,6.0097356 C40.4408268,6.5324556 40.8590028,6.9565716 41.3900388,6.9565716 C41.9044428,6.9565716 42.3166788,6.5538396 42.3238068,6.0429996 C42.3309348,5.5380996 41.9186988,5.1211116 41.4054828,5.1151716 L41.4054828,5.1151716 Z" id="Fill-43" fill="#E30021" fill-rule="nonzero" mask="url(#mask-12)"></path>
                        </g>
                    </g>
                </g>
            </g>
        </g>
    </g>
</svg>