<?xml version="1.0" encoding="utf-8"?>
<!-- Generator: Adobe Illustrator 16.0.0, SVG Export Plug-In . SVG Version: 6.00 Build 0)  -->
<!DOCTYPE svg PUBLIC "-//W3C//DTD SVG 1.1//EN" "http://www.w3.org/Graphics/SVG/1.1/DTD/svg11.dtd">
<svg version="1.1" xmlns="http://www.w3.org/2000/svg" xmlns:xlink="http://www.w3.org/1999/xlink" x="0px" y="0px"
	 width="680.315px" height="340.157px" viewBox="0 0 680.315 340.157" enable-background="new 0 0 680.315 340.157"
	 xml:space="preserve">
<g>
	<path d="M172.056,223.76c-16.82,0-30.834-11.423-34.078-27.777l4.423-0.878c2.82,14.217,15.015,24.145,29.655,24.145
		c12.543,0,23.231-7.075,27.893-18.466l4.175,1.708C198.835,215.411,186.248,223.76,172.056,223.76z M172.056,208.447v-4.511
		c8.677,0,14.067-5.722,14.067-14.935c0-9.815-5.845-12.08-17.046-15.541c-2.887-0.893-5.871-1.815-8.963-3.014
		c-7.025-2.746-12.417-7.795-15.187-14.221l4.142-1.784c2.289,5.309,6.792,9.501,12.681,11.803c2.938,1.139,5.847,2.037,8.658,2.906
		c10.401,3.215,20.226,6.252,20.226,19.851C190.634,200.633,183.168,208.447,172.056,208.447z M184.504,162.634
		c-0.461-0.191-0.927-0.377-1.402-0.557c-2.647-1.008-5.106-1.832-7.484-2.63c-9.466-3.173-16.943-5.679-16.943-14.792
		c0-7.5,5.628-12.945,13.382-12.945c5.351,0,10.189,2.648,13.219,7.079l7.461-7.46c-4.663-6.917-11.758-10.421-21.115-10.421
		c-0.844,0-1.68,0.038-2.497,0.112l-0.412-4.489c0.954-0.088,1.926-0.134,2.909-0.134c11.545,0,20.51,4.881,25.926,14.114
		l0.882,1.503l-14.382,14.381l-1.337-2.988c-1.984-4.433-6.066-7.187-10.653-7.187c-5.306,0-8.871,3.39-8.871,8.435
		c0,5.631,4.251,7.294,13.866,10.517c2.308,0.773,4.923,1.65,7.651,2.689c0.514,0.193,1.021,0.397,1.524,0.604L184.504,162.634z"/>
	<path d="M260.047,223.014h-4.511v-90.295h4.511V223.014z M243.867,200.958h-4.511v-63.87h-22.971v-19.823h66.627v8.927h-4.511
		v-4.416h-57.605v10.802h22.971V200.958z"/>
	<path d="M308.087,222.893h-18.479v-4.511h15.324l6.068-16.61h44.594v4.511h-41.438L308.087,222.893z M378.504,221.42
		l-23.842-64.432l4.228-1.564l23.843,64.432L378.504,221.42z M355.516,190.97h-20.403v-4.511h13.978l-13.977-38.64l-3.554,9.832
		l-4.242-1.532l7.795-21.562L355.516,190.97z M306.886,180.445l-4.23-1.564l22.797-61.616h14.12v4.511h-10.979L306.886,180.445z"/>
	<path d="M430.79,222.893h-11.852v-4.511h7.341v-71.025h4.511V222.893z M414.61,191.563H410.1v-54.476h-10.446v-4.511h14.957
		V191.563z M453.761,137.12h-4.511v-15.345h-62.058v-4.511h66.568V137.12z"/>
	<path d="M542.338,222.893h-68.796V117.265h42.717v4.511h-38.206v96.606h59.774V207.58h-48.106v-9.783h4.511v5.272h48.106V222.893z
		 M517.202,179.557h-20.53v-4.511h16.02v-10.802h-22.971v-31.667h43.353v4.511h-38.842v22.646h22.971V179.557z"/>
</g>
</svg>
